<?xml version="1.0" encoding="UTF-8"?>
<svg version="1.1" xmlns="http://www.w3.org/2000/svg" width="512" height="512">
<path d="M0 0 C2.92681589 0.84937171 4.5762118 1.94190859 6.95019531 3.83691406 C8.1771814 4.7992395 8.1771814 4.7992395 9.42895508 5.78100586 C10.30350342 6.47750244 11.17805176 7.17399902 12.07910156 7.89160156 C22.94640292 16.35534733 34.16807175 24.15217666 45.64160156 31.76660156 C46.45387207 32.30849121 47.26614258 32.85038086 48.10302734 33.40869141 C69.95559031 47.95470886 92.43114476 61.50343227 115.64160156 73.76660156 C116.53556641 74.24371582 117.42953125 74.72083008 118.35058594 75.21240234 C151.87614897 93.10264497 186.19794216 108.49162979 221.76660156 121.82910156 C222.60341461 122.14297821 223.44022766 122.45685486 224.30239868 122.78024292 C226.72896825 123.68762981 229.15740817 124.58976508 231.58691406 125.48925781 C232.62601677 125.87599167 232.62601677 125.87599167 233.68611145 126.27053833 C240.95478007 128.94273524 248.28250247 131.31356853 255.64160156 133.76660156 C255.64160156 189.86660156 255.64160156 245.96660156 255.64160156 303.76660156 C237.06067806 294.47613981 237.06067806 294.47613981 231.19628906 291.46972656 C230.50203827 291.11423737 229.80778748 290.75874817 229.09249878 290.39248657 C226.89979807 289.26861669 224.70804168 288.14292732 222.51660156 287.01660156 C221.75303345 286.62442444 220.98946533 286.23224731 220.20275879 285.82818604 C210.35192055 280.76433323 200.56588132 275.6086953 190.87231445 270.24853516 C182.97397621 265.90037319 174.9718774 261.76374975 166.95410156 257.64160156 C166.28007294 257.29499481 165.60604431 256.94838806 164.91159058 256.59127808 C162.26906271 255.23261969 159.62641045 253.87420374 156.98353577 252.51622009 C143.64313117 245.65835617 130.42167499 238.58242486 117.20883179 231.48272705 C107.72703963 226.38978542 98.19436397 221.40114705 88.6328125 216.45947266 C82.12676047 213.08699396 75.68191007 209.62067184 69.26660156 206.07910156 C59.4037364 200.64252506 49.40954777 195.47214963 39.39160156 190.32910156 C38.63389465 189.94001617 37.87618774 189.55093079 37.09552002 189.15005493 C33.52232215 187.31650788 29.94683554 185.48768829 26.36669922 183.66772461 C24.10685225 182.51859482 21.85883592 181.35412436 19.61572266 180.17211914 C9.12788365 174.70488594 -1.92257947 173.32828248 -13.35839844 176.76660156 C-24.59139926 181.12960435 -31.30894221 186.64789358 -36.41308594 197.53222656 C-39.62689461 205.1285016 -39.6476313 214.32823789 -36.79589844 222.07910156 C-31.49474828 233.20969519 -24.04727432 238.28554237 -13.35839844 243.76660156 C-11.60774028 244.68070677 -9.85778347 245.59615599 -8.10839844 246.51269531 C-5.19362615 248.03731057 -2.27730422 249.5586062 0.64355469 251.0715332 C7.19309655 254.4661257 13.68194601 257.95439777 20.14160156 261.51660156 C29.72829203 266.79454873 39.4366962 271.81507722 49.17321777 276.80853271 C57.30641134 280.98195821 65.39212459 285.21530673 73.39160156 289.64160156 C82.87339489 294.88498958 92.49556053 299.83476435 102.14160156 304.76660156 C112.6448003 310.1366872 123.08835522 315.5761985 133.41235352 321.28564453 C141.31040124 325.63312509 149.31184051 329.76971805 157.32910156 333.89160156 C158.00313019 334.23820831 158.67715881 334.58481506 159.37161255 334.94192505 C162.01414042 336.30058343 164.65679267 337.65899939 167.29966736 339.01698303 C177.60900612 344.31667555 187.8560975 349.72980393 198.06738281 355.21582031 C199.79553223 356.14418701 199.79553223 356.14418701 201.55859375 357.09130859 C203.34684894 358.05201171 205.13493869 359.01301574 206.92248535 359.97503662 C213.67373853 363.60725059 220.4424267 367.19902105 227.26269531 370.70019531 C227.88064972 371.01789886 228.49860413 371.33560242 229.13528442 371.66293335 C232.0943809 373.18305636 235.05666597 374.69599714 238.02441406 376.19921875 C239.08273437 376.74094727 240.14105469 377.28267578 241.23144531 377.84082031 C242.62157837 378.54597778 242.62157837 378.54597778 244.03979492 379.26538086 C249.48977482 382.40997375 253.29196799 385.8239765 255.64160156 391.76660156 C256.2010286 395.27476861 256.18895992 398.72555779 256.15917969 402.27246094 C256.1696936 403.82257622 256.1696936 403.82257622 256.18041992 405.40400696 C256.19796754 408.80639839 256.18638804 412.20795225 256.17285156 415.61035156 C256.17554739 417.98254556 256.17943056 420.35473849 256.18444824 422.72692871 C256.19033894 427.69322249 256.18179375 432.65922806 256.16308594 437.62548828 C256.14029712 443.98428032 256.15342243 450.34239698 256.17737579 456.70116425 C256.19184506 461.59801298 256.18722249 466.49470219 256.17686462 471.39155579 C256.17420049 473.73586609 256.17745605 476.08019099 256.18678284 478.42448425 C256.19696655 481.70362597 256.18142047 484.98168117 256.15917969 488.26074219 C256.16727661 489.22510696 256.17537354 490.18947174 256.18371582 491.18305969 C256.10778382 497.24063684 255.16563029 500.79984557 251.64160156 505.76660156 C246.06099191 511.06102611 241.0036244 512.06442375 233.48990154 512.02666378 C232.66935623 512.03046945 231.84881092 512.03427512 231.00340059 512.03819612 C228.24208698 512.04853763 225.48097795 512.04460101 222.71965027 512.04075623 C220.72463111 512.04520723 218.72961372 512.05052082 216.73459893 512.05662495 C211.2429653 512.07083171 205.75138819 512.07246773 200.2597388 512.07202804 C194.34072435 512.07367387 188.42173335 512.08673593 182.50273132 512.09822083 C170.2303993 512.11989715 157.95808115 512.12847868 145.6857327 512.13325583 C145.01869412 512.133517 144.35165555 512.13377818 143.66440368 512.13404727 C142.99603227 512.13430754 142.32766086 512.13456782 141.63903578 512.13483598 C134.23356591 512.13791783 126.82809961 512.14442239 119.42263222 512.15104866 C97.05780684 512.17069616 74.69298532 512.18710095 52.32815075 512.18992519 C51.61277821 512.19001925 50.89740567 512.19011332 50.16035518 512.19021023 C47.26123581 512.19058871 44.36211644 512.19095271 41.46299706 512.19131321 C39.28091406 512.19158493 37.09883105 512.19186161 34.91674805 512.19213867 C33.83518301 512.19227071 33.83518301 512.19227071 32.73176817 512.19240541 C10.0736632 512.19531117 -12.58435647 512.21741 -35.24243164 512.25366211 C-60.69399296 512.29438259 -86.14549617 512.31808371 -111.59709185 512.31838471 C-114.31072184 512.31848153 -117.02435182 512.31864825 -119.7379818 512.31886482 C-120.74024122 512.31893099 -120.74024122 512.31893099 -121.7627483 512.3189985 C-131.85205213 512.32004926 -141.94127877 512.33468133 -152.03055763 512.35638237 C-163.50512614 512.38085467 -174.97954483 512.38820712 -186.45413236 512.37313484 C-192.31031341 512.36594927 -198.16619835 512.36689462 -204.0223465 512.38954544 C-209.38218411 512.41007833 -214.74149688 512.40758808 -220.10132845 512.3866706 C-222.04142007 512.38316484 -223.98154912 512.3881314 -225.92159162 512.40237503 C-228.55809026 512.42048613 -231.19273276 512.40778112 -233.829175 512.38742733 C-234.58323284 512.3999907 -235.33729069 512.41255408 -236.11419877 512.42549816 C-242.56536273 512.31881657 -247.39689338 509.7587864 -251.92639952 505.18235674 C-255.16525504 501.39066928 -256.48409894 499.14845802 -256.47865295 494.23617554 C-256.48002762 493.2826268 -256.48140228 492.32907806 -256.4828186 491.34663391 C-256.47922333 490.29719101 -256.47562805 489.24774811 -256.47192383 488.16650391 C-256.47206985 487.06405838 -256.47221588 485.96161285 -256.47236633 484.82575989 C-256.47166756 481.16799986 -256.46387677 477.51029024 -256.45605469 473.85253906 C-256.45419038 471.32190987 -256.45276654 468.79128032 -256.45176697 466.26065063 C-256.44833401 460.271867 -256.44044599 454.28310514 -256.43041748 448.29433024 C-256.41924877 441.47700377 -256.41374398 434.65967643 -256.40872204 427.84234309 C-256.39826318 413.81708583 -256.38066845 399.79184469 -256.35839844 385.76660156 C-255.52663621 385.765135 -254.69487398 385.76366844 -253.83790684 385.76215744 C-233.58084542 385.72507395 -213.32395111 385.6660387 -193.06702518 385.58269882 C-183.27083633 385.54292291 -173.47472765 385.51052305 -163.6784668 385.49560547 C-155.13807476 385.48258146 -146.59785922 385.45559763 -138.05756658 385.4119885 C-133.53729383 385.38939055 -129.01723863 385.37368988 -124.49690437 385.37471771 C-120.23766886 385.37546531 -115.97891397 385.35747469 -111.71980286 385.32543373 C-110.16103751 385.31695141 -108.60221814 385.31517345 -107.04343987 385.32079887 C-95.13863972 385.39111568 -95.13863972 385.39111568 -84.35839844 380.76660156 C-80.39143999 376.69792623 -78.07573705 372.736522 -77.92089844 367.01660156 C-77.8809375 366.21738281 -77.84097656 365.41816406 -77.79980469 364.59472656 C-78.88955038 359.07741273 -81.26245048 355.24419545 -85.89477539 351.97851562 C-89.12535786 350.12703673 -92.40259356 348.43108907 -95.73339844 346.76660156 C-96.97545863 346.12622666 -98.21648698 345.48384698 -99.45654297 344.83959961 C-102.74153069 343.13894634 -106.03868729 341.46335493 -109.33886719 339.79241943 C-112.67616215 338.09724546 -116.00160456 336.37921552 -119.32714844 334.66113281 C-120.64696026 333.97946819 -121.96678446 333.29782752 -123.28662109 332.61621094 C-123.93753723 332.28000732 -124.58845337 331.94380371 -125.25909424 331.59741211 C-127.24072218 330.57532411 -129.22392058 329.55634276 -131.20751953 328.53808594 C-139.52115127 324.26599175 -147.75197576 319.86315369 -155.93408203 315.34399414 C-163.8336924 311.00307579 -171.83874471 306.87966817 -179.85839844 302.76660156 C-189.66196458 297.73852266 -199.40155781 292.62741287 -209.0402832 287.28759766 C-214.28413345 284.3977189 -219.57181359 281.61516099 -224.90917969 278.90332031 C-225.88839386 278.40417366 -225.88839386 278.40417366 -226.88739014 277.89494324 C-230.1030775 276.25654829 -233.3231418 274.62814665 -236.55224609 273.01635742 C-252.80772796 264.75901952 -252.80772796 264.75901952 -256.35839844 255.76660156 C-256.78917222 251.80564144 -256.73733655 247.86695321 -256.69897461 243.88623047 C-256.69941269 242.6954187 -256.69985077 241.50460693 -256.70030212 240.27770996 C-256.69857479 237.02594653 -256.68356788 233.77457441 -256.66258025 230.52288866 C-256.64377924 227.11963647 -256.64206032 223.71637594 -256.63850403 220.31307983 C-256.62919357 213.87458314 -256.60459348 207.43623994 -256.57445556 200.99781072 C-256.54088029 193.66530559 -256.52441771 186.33279299 -256.50936925 179.00023007 C-256.47804292 163.9222685 -256.42530203 148.84445041 -256.35839844 133.76660156 C-255.23930588 133.37948502 -254.12021332 132.99236847 -252.96720886 132.59352112 C-248.72339667 131.12424447 -244.48152779 129.64942194 -240.24015808 128.17311096 C-238.42147144 127.54089328 -236.60229494 126.91008261 -234.78257751 126.28083801 C-217.66827423 120.36091867 -200.91199389 113.76469183 -184.28448486 106.59680176 C-182.42083745 105.79351462 -180.55541843 104.99434152 -178.68994141 104.1953125 C-149.12973005 91.46805568 -120.06786585 77.15028745 -92.35839844 60.76660156 C-91.53919922 60.28739258 -90.72 59.80818359 -89.87597656 59.31445312 C-70.2134248 47.80447717 -50.88528414 35.63983547 -32.43261719 22.26708984 C-30.18544374 20.64148626 -27.92876413 19.02966087 -25.67089844 17.41894531 C-24.08710888 16.28546793 -22.50377122 15.15135884 -20.92089844 14.01660156 C-20.16276855 13.47350342 -19.40463867 12.93040527 -18.62353516 12.37084961 C-13.66522375 8.78984693 -8.95079815 5.05557325 -4.40136719 0.96191406 C-2.35839844 -0.23339844 -2.35839844 -0.23339844 0 0 Z " fill="#C35317" transform="translate(256.3583984375,0.2333984375)"/>
</svg>
