<?xml version="1.0" encoding="UTF-8"?>
<svg version="1.1" xmlns="http://www.w3.org/2000/svg" width="2048" height="335">
<path d="M0 0 C2.31350163 1.58549677 4.21245501 3.061218 6.25 4.9375 C9.87382141 8.32347217 9.87382141 8.32347217 14 11 C14 11.66 14 12.32 14 13 C14.7115625 13.24234375 15.423125 13.4846875 16.15625 13.734375 C19.41302297 15.18381791 21.73153606 17.00248358 24.5 19.25 C32.79619205 25.83451497 41.66762814 31.56074644 50.51782227 37.36450195 C52.96396751 38.97625832 55.39447331 40.6097551 57.82421875 42.24609375 C60.83615519 44.25603946 63.85466888 46.12557712 67.0625 47.8125 C70.77723475 49.78690696 74.42632239 51.83681204 78.0534668 53.9675293 C89.5003958 60.62030584 101.57348545 65.99157063 113.61523438 71.46044922 C116.69147325 72.85966751 119.7608571 74.27266126 122.828125 75.69140625 C130.77182461 79.34502579 138.59767455 82.81132546 146.98046875 85.34375 C149 86 149 86 150 87 C150.09565123 88.4674896 150.12188309 89.93956884 150.12025452 91.41017151 C150.12231651 92.83843262 150.12231651 92.83843262 150.12442017 94.29554749 C150.12082489 95.34858566 150.11722961 96.40162384 150.11352539 97.48657227 C150.11367142 98.58887177 150.11381744 99.69117126 150.1139679 100.82687378 C150.11326821 104.49007092 150.10547324 108.15321794 150.09765625 111.81640625 C150.09579227 114.34846468 150.09436827 116.88052348 150.09336853 119.4125824 C150.08993346 125.40848249 150.08204269 131.40436089 150.07201904 137.40025228 C150.06085677 144.22481058 150.05534717 151.04936972 150.05032361 157.87393486 C150.03986004 171.91596664 150.0222613 185.95798233 150 200 C148.2424181 199.04312975 146.48505464 198.08585825 144.7277832 197.12841797 C143.74912796 196.59538055 142.77047272 196.06234314 141.76216125 195.51315308 C138.54858326 193.75270718 135.36454772 191.95052927 132.1875 190.125 C130.99350701 189.44007379 129.79949607 188.75517887 128.60546875 188.0703125 C128.00911621 187.72774414 127.41276367 187.38517578 126.79833984 187.03222656 C124.44862918 185.68351944 122.09630219 184.3394214 119.74365234 182.99584961 C118.57841262 182.33034796 117.41337442 181.66449334 116.24853516 180.99829102 C113.34688013 179.3388742 110.44282582 177.68403764 107.53515625 176.03515625 C100.58514313 172.08717355 93.69988696 168.05807511 86.88500977 163.88110352 C84.27066817 162.29196615 81.9142691 160.97142303 79 160 C79 159.34 79 158.68 79 158 C78.47237061 157.90485107 77.94474121 157.80970215 77.40112305 157.71166992 C74.19287787 156.76077671 71.51230853 155.2293056 68.58203125 153.61328125 C67.9653508 153.27378952 67.34867035 152.93429779 66.71330261 152.58451843 C65.40845408 151.86466768 64.10487545 151.14251086 62.80249023 150.41821289 C60.83989715 149.32772288 58.87249955 148.24634075 56.90429688 147.16601562 C50.71054078 143.74821694 44.65026667 140.23564413 38.8137207 136.22680664 C36.51825081 134.67414327 34.14038413 133.34957955 31.6875 132.0625 C27.76609621 129.97362983 23.93572186 127.78442483 20.125 125.5 C7.379856 117.50089923 7.379856 117.50089923 -7 116 C-9.4148574 116.8921887 -11.71143651 117.88759431 -14.01953125 119.02734375 C-16 120 -16 120 -19 121 C-20.12274701 122.8012994 -20.12274701 122.8012994 -21 125 C-21.36480469 125.74636719 -21.72960937 126.49273437 -22.10546875 127.26171875 C-24.74616991 133.18184663 -25.74171508 137.67418758 -24 144 C-22.54276115 147.33443944 -22.54276115 147.33443944 -21 150 C-21 150.66 -21 151.32 -21 152 C-20.34 152 -19.68 152 -19 152 C-18.17048828 152.86238281 -18.17048828 152.86238281 -17.32421875 153.7421875 C-14.46848416 156.51632968 -11.28693401 158.25606389 -7.8125 160.125 C-6.36635849 160.92036955 -4.92107277 161.7172967 -3.4765625 162.515625 C-2.73438477 162.92490234 -1.99220703 163.33417969 -1.22753906 163.75585938 C2.32027771 165.7374107 5.81657113 167.80367239 9.3125 169.875 C15.98808075 173.82167546 22.68781222 177.72391321 29.40356445 181.60180664 C33.99397677 184.25442677 38.57686539 186.91934476 43.15234375 189.59765625 C44.20607178 190.21415039 45.2597998 190.83064453 46.34545898 191.46582031 C48.38612601 192.66043415 50.42605314 193.85631317 52.46508789 195.05371094 C58.01369742 198.30071337 63.60567627 201.44197727 69.25927734 204.50219727 C73.89900772 207.0378062 78.47861987 209.67767126 83.0625 212.3125 C84.90728169 213.37156489 86.75232052 214.43018202 88.59765625 215.48828125 C89.39695557 215.94759033 90.19625488 216.40689941 91.01977539 216.88012695 C92.32821692 217.62008766 93.65551167 218.32775584 95 219 C95 219.66 95 220.32 95 221 C95.72582275 221.11013428 96.45164551 221.22026855 97.19946289 221.33374023 C100.1767019 222.04203814 102.19815633 223.0788712 104.80859375 224.66015625 C105.71375732 225.20269043 106.6189209 225.74522461 107.55151367 226.30419922 C108.50388916 226.88443848 109.45626465 227.46467773 110.4375 228.0625 C112.4213725 229.2547428 114.40574719 230.44615037 116.390625 231.63671875 C117.35291016 232.21599121 118.31519531 232.79526367 119.30664062 233.39208984 C122.73745161 235.44025166 126.20492037 237.41667406 129.6875 239.375 C147.31096565 249.39410968 147.31096565 249.39410968 150 253 C150.30627098 255.52398667 150.43047522 257.8039139 150.41992188 260.32958984 C150.42839142 261.07302139 150.43686096 261.81645294 150.44558716 262.58241272 C150.46900199 265.04209464 150.46997818 267.50115252 150.46875 269.9609375 C150.47584973 271.67103323 150.48354845 273.38112658 150.49182129 275.09121704 C150.50527698 278.67741514 150.50683041 282.26339308 150.50097656 285.84960938 C150.49508433 290.44220054 150.52564636 295.03373314 150.56609344 299.62611961 C150.59196438 303.15894244 150.59484835 306.69151033 150.59120178 310.22441483 C150.59289412 311.91729006 150.6025477 313.61017693 150.62034607 315.30295944 C150.64252165 317.67322958 150.63284314 320.04135731 150.61523438 322.41162109 C150.62849762 323.10893845 150.64176086 323.8062558 150.65542603 324.52470398 C150.59710106 327.90920244 150.09388204 329.86033484 148.19896698 332.67933655 C143.37944569 336.17561737 139.01090083 335.69213343 133.19506836 335.63491821 C131.98559257 335.64271817 130.77611677 335.65051812 129.5299902 335.65855443 C126.17557954 335.67505243 122.82256791 335.66911035 119.46824217 335.65362334 C115.84988297 335.64231692 112.23164661 335.65976896 108.61331177 335.67352295 C101.52621164 335.69576762 94.43937613 335.69094881 87.3522656 335.67645974 C81.59296575 335.66517229 75.83374011 335.66363445 70.07443237 335.66907883 C68.84535358 335.67022807 68.84535358 335.67022807 67.59144491 335.67140054 C65.92692921 335.67299915 64.26241354 335.67462022 62.59789789 335.6762635 C46.98609798 335.69052459 31.37444481 335.67412265 15.76266897 335.64726166 C2.36416675 335.62492253 -11.03411888 335.62880256 -24.43261719 335.65185547 C-39.9881659 335.67860714 -55.54358597 335.68915126 -71.09915447 335.67379415 C-72.75758042 335.67220139 -74.41600639 335.67062953 -76.07443237 335.66907883 C-77.29842958 335.66792176 -77.29842958 335.66792176 -78.54715401 335.66674132 C-84.30019501 335.66242241 -90.05315448 335.66971496 -95.80618286 335.68147659 C-102.8163317 335.69549314 -109.82620058 335.69171969 -116.8363173 335.66507287 C-120.41374894 335.65192299 -123.99071365 335.64680156 -127.56814194 335.66331863 C-131.4440487 335.68094328 -135.31918922 335.6599139 -139.19506836 335.63491821 C-140.32881425 335.64607182 -141.46256014 335.65722543 -142.63066196 335.66871703 C-150.2070227 335.57354335 -150.2070227 335.57354335 -154.20022869 332.68534374 C-156.55220221 329.17608824 -156.66952342 326.26578314 -156.56762695 322.18041992 C-156.56835709 321.40915771 -156.56908722 320.63789551 -156.56983948 319.84326172 C-156.56636796 317.30493778 -156.52753062 314.76847033 -156.48828125 312.23046875 C-156.4789515 310.4664256 -156.47183615 308.70236947 -156.46684265 306.93830872 C-156.44778548 302.30359904 -156.39869609 297.66967742 -156.34332275 293.03527832 C-156.29210241 288.30292419 -156.26932268 283.57044227 -156.24414062 278.83789062 C-156.19057581 269.55824821 -156.10527877 260.27918973 -156 251 C-154.13078133 250.9845388 -154.13078133 250.9845388 -152.22380066 250.96876526 C-140.4959175 250.87112638 -128.76808853 250.76840135 -117.04029369 250.66066074 C-111.0105238 250.60543106 -104.98074905 250.55201091 -98.95092773 250.50268555 C-93.1348523 250.45504278 -87.31883664 250.40269988 -81.50283241 250.34705925 C-79.28083084 250.32663532 -77.05881289 250.30792231 -74.83678246 250.29092598 C-71.73121577 250.26688293 -68.62576234 250.23682804 -65.52026367 250.20532227 C-64.59597565 250.1995668 -63.67168762 250.19381134 -62.71939087 250.18788147 C-61.87385147 250.17809265 -61.02831207 250.16830383 -60.15715027 250.15821838 C-59.42248126 250.15176583 -58.68781225 250.14531328 -57.93088055 250.1386652 C-55.78039283 250.06427609 -55.78039283 250.06427609 -53 249 C-53 248.34 -53 247.68 -53 247 C-52.34 247 -51.68 247 -51 247 C-50.64553737 242.01783075 -50.45822731 238.14605761 -52.625 233.5625 C-55.32562674 230.64866589 -57.41795073 229.75191929 -61 228 C-64.89510389 225.84806393 -68.75820916 223.63982636 -72.625 221.4375 C-74.67916769 220.26861727 -76.73383519 219.10061236 -78.7890625 217.93359375 C-79.69350098 217.41853271 -80.59793945 216.90347168 -81.52978516 216.37280273 C-83.66217763 215.18774216 -85.80779994 214.06924894 -88 213 C-88 212.34 -88 211.68 -88 211 C-89.65 210.67 -91.3 210.34 -93 210 C-93 209.34 -93 208.68 -93 208 C-93.83917969 207.83177734 -93.83917969 207.83177734 -94.6953125 207.66015625 C-97.34616721 206.90084363 -99.46596558 205.78114078 -101.875 204.4375 C-102.844375 203.89738281 -103.81375 203.35726562 -104.8125 202.80078125 C-105.864375 202.20652344 -106.91625 201.61226562 -108 201 C-109.11375 200.37480469 -110.2275 199.74960938 -111.375 199.10546875 C-118.31865906 195.1863064 -125.1259599 191.08904744 -131.8984375 186.87890625 C-135.69407849 184.5795318 -139.57729415 182.47705519 -143.484375 180.375 C-153.34201954 174.98697068 -153.34201954 174.98697068 -156 171 C-156.18420757 168.28123789 -156.25227988 165.66655035 -156.22705078 162.94848633 C-156.22734283 162.12874832 -156.22763489 161.30901031 -156.22793579 160.46443176 C-156.22654188 157.75352411 -156.21097781 155.04289092 -156.1953125 152.33203125 C-156.19158259 150.45301972 -156.18873551 148.57400624 -156.18673706 146.69499207 C-156.17909889 141.74820592 -156.15944879 136.80153713 -156.1373291 131.85479736 C-156.11687466 126.80751127 -156.1077362 121.76020622 -156.09765625 116.71289062 C-156.0762031 106.80854218 -156.0420649 96.90428085 -156 87 C-152.2088422 85.41544634 -148.41698003 83.83258487 -144.625 82.25 C-143.56410156 81.8065625 -142.50320312 81.363125 -141.41015625 80.90625 C-135.6679395 78.51072399 -129.91626519 76.14890093 -124.12588501 73.87200928 C-120.7871023 72.50248577 -117.58321125 70.89802508 -114.375 69.25 C-112.97929397 68.54141586 -111.58345704 67.8330895 -110.1875 67.125 C-109.48882812 66.76921875 -108.79015625 66.4134375 -108.0703125 66.046875 C-106.11601955 65.05866649 -104.15431302 64.08800389 -102.1875 63.125 C-94.21804558 59.21460515 -86.36793887 55.1035446 -78.5625 50.875 C-77.65097168 50.38418945 -76.73944336 49.89337891 -75.80029297 49.38769531 C-69.98333666 46.2128769 -64.45727383 42.75658911 -59 39 C-56 37 -56 37 -53 37 C-53 36.34 -53 35.68 -53 35 C-50.6640625 33.2734375 -50.6640625 33.2734375 -47.625 31.375 C-46.62726563 30.74335938 -45.62953125 30.11171875 -44.6015625 29.4609375 C-42 28 -42 28 -40 28 C-40 27.34 -40 26.68 -40 26 C-38.48828125 24.84375 -38.48828125 24.84375 -36.3125 23.5 C-31.5045441 20.42168909 -27.04997349 17.00295742 -22.60668945 13.42773438 C-19.53412528 11.00249729 -16.72020573 9.24006858 -13 8 C-13 7.34 -13 6.68 -13 6 C-11.6796875 4.4921875 -11.6796875 4.4921875 -9.875 2.875 C-9.29492188 2.33617187 -8.71484375 1.79734375 -8.1171875 1.2421875 C-5.12622094 -0.51266004 -3.42445556 -0.53108802 0 0 Z " fill="#C35317" transform="translate(156,0)"/>
<path d="M0 0 C0.66178253 -0.00175232 1.32356506 -0.00350464 2.00540161 -0.00531006 C4.20284615 -0.00972764 6.40021083 -0.00679094 8.59765625 -0.00341797 C10.11840836 -0.00409104 11.63916037 -0.00506108 13.15991211 -0.00631714 C16.35108461 -0.00779398 19.54222917 -0.00563999 22.73339844 -0.00097656 C26.83280155 0.00472073 30.93213921 0.00144165 35.03153992 -0.00454903 C38.17297869 -0.008155 41.31440183 -0.00701589 44.45584106 -0.00442123 C45.96778369 -0.00375207 47.47972771 -0.00458003 48.9916687 -0.00690079 C51.10125512 -0.00942792 53.21073412 -0.00558591 55.3203125 0 C56.52308838 0.00079559 57.72586426 0.00159119 58.96508789 0.00241089 C61.66015625 0.12939453 61.66015625 0.12939453 62.66015625 1.12939453 C62.75533428 3.8987842 62.7856989 6.64316612 62.77368164 9.4128418 C62.77382767 10.2810556 62.77397369 11.14926941 62.77412415 12.04379272 C62.77342471 14.92782039 62.76563088 17.81178433 62.7578125 20.69580078 C62.75594843 22.6897732 62.75452448 24.68374608 62.75352478 26.67771912 C62.74969873 31.93685155 62.7398677 37.19595656 62.7288208 42.45507812 C62.7168144 48.75926903 62.71220486 55.06346909 62.70636749 61.36766815 C62.69665599 70.95492938 62.67750004 80.54213037 62.66015625 90.12939453 C83.45015625 90.12939453 104.24015625 90.12939453 125.66015625 90.12939453 C125.66015625 60.42939453 125.66015625 30.72939453 125.66015625 0.12939453 C137.16890625 0.06751953 148.67765625 0.00564453 160.53515625 -0.05810547 C165.98958252 -0.09907349 165.98958252 -0.09907349 171.55419922 -0.14086914 C175.98852539 -0.15441895 175.98852539 -0.15441895 178.06326294 -0.15693665 C179.51486975 -0.16154879 180.96646493 -0.17211119 182.41799927 -0.18733215 C184.61464458 -0.20921846 186.8105866 -0.21232608 189.00732422 -0.21118164 C190.24642548 -0.21784348 191.48552673 -0.22450531 192.76217651 -0.23136902 C194.19667648 -0.05279106 194.19667648 -0.05279106 195.66015625 0.12939453 C198.33482428 4.14139658 198.01549866 7.7225847 198.07421875 12.39111328 C198.09367554 13.38993027 198.11313232 14.38874725 198.13317871 15.41783142 C198.19563016 18.88409775 198.24120406 22.35034637 198.28515625 25.81689453 C198.31267975 27.66272125 198.31267975 27.66272125 198.34075928 29.5458374 C199.23053187 90.15387985 199.17542255 150.83035531 198.25399017 211.43755341 C198.22282709 213.49312557 198.19307714 215.54871512 198.16339111 217.60430908 C198.10773464 221.28730301 198.0443486 224.9700436 197.9765625 228.65283203 C197.95983994 229.70847351 197.94311737 230.76411499 197.92588806 231.85174561 C197.90595291 232.79592346 197.88601776 233.74010132 197.86547852 234.71289062 C197.84993423 235.52535248 197.83438995 236.33781433 197.81837463 237.17489624 C197.66015625 239.12939453 197.66015625 239.12939453 196.66015625 241.12939453 C173.23015625 241.12939453 149.80015625 241.12939453 125.66015625 241.12939453 C125.33015625 211.09939453 125.00015625 181.06939453 124.66015625 150.12939453 C104.00397098 149.39167363 83.32951091 149.12939453 62.66015625 149.12939453 C62.66015625 179.48939453 62.66015625 209.84939453 62.66015625 241.12939453 C39.56015625 241.12939453 16.46015625 241.12939453 -7.33984375 241.12939453 C-7.36187027 210.57183407 -7.38034169 180.01428087 -7.39090908 149.45671499 C-7.39215986 145.85289787 -7.39345417 142.24908077 -7.39477539 138.64526367 C-7.3950377 137.92777844 -7.39530001 137.2102932 -7.39557027 136.47106599 C-7.39992706 124.83845785 -7.40781466 113.20585463 -7.41699655 101.57324941 C-7.42633284 89.645964 -7.43189931 77.71868118 -7.43393224 65.79139227 C-7.43518381 59.08830555 -7.43820555 52.38522911 -7.44557381 45.68214607 C-7.45232982 39.38104274 -7.45446157 33.07995526 -7.45295143 26.77884865 C-7.45322795 24.45879785 -7.45523554 22.13874656 -7.45904922 19.81869888 C-7.46397993 16.6661051 -7.46284435 13.51357218 -7.46009827 10.36097717 C-7.46301111 9.43006242 -7.46592395 8.49914767 -7.46892506 7.54002339 C-7.45132052 0.13050402 -7.31247863 0.00483694 0 0 Z " fill="#C25216" transform="translate(1416.33984375,91.87060546875)"/>
<path d="M0 0 C6.84597788 -0.10252838 13.69175345 -0.17193196 20.53833008 -0.21972656 C22.86099648 -0.23967881 25.18361373 -0.26685049 27.50610352 -0.30175781 C44.42928064 -0.54950292 58.21616469 0.31133289 73.6328125 7.8515625 C76.04917674 9.02385802 78.49683656 10.02902201 81 11 C81 11.66 81 12.32 81 13 C81.886875 13.268125 82.77375 13.53625 83.6875 13.8125 C89.39192374 15.8574821 92.7957121 18.69793796 97 23 C98.28352609 24.13427887 99.57588363 25.25861098 100.875 26.375 C108.70757624 33.22483727 114.4424882 40.13214422 120 49 C120.57234375 49.88429687 121.1446875 50.76859375 121.734375 51.6796875 C123 54 123 54 123 57 C123.66 57 124.32 57 125 57 C125.79311367 58.72850345 126.5844259 60.45783354 127.375 62.1875 C127.81585937 63.15042969 128.25671875 64.11335938 128.7109375 65.10546875 C129.13632813 66.06066406 129.56171875 67.01585937 130 68 C130.38414062 68.86238281 130.76828125 69.72476563 131.1640625 70.61328125 C132 73 132 73 132 77 C132.66 77 133.32 77 134 77 C134.29296875 79.88085938 134.29296875 79.88085938 134.5859375 82.76171875 C134.92339454 85.05357483 134.92339454 85.05357483 135.97485352 87.24853516 C137.11539693 90.30972217 137.49000092 93.01336963 137.81640625 96.26171875 C137.94080078 97.46376953 138.06519531 98.66582031 138.19335938 99.90429688 C138.31517578 101.15275391 138.43699219 102.40121094 138.5625 103.6875 C138.68818359 104.91662109 138.81386719 106.14574219 138.94335938 107.41210938 C139.18867423 109.8203049 139.42920992 112.22899291 139.66455078 114.63818359 C139.87806383 116.77797595 140.10421923 118.91657222 140.34716797 121.05322266 C140.44787598 121.94960449 140.54858398 122.84598633 140.65234375 123.76953125 C140.74378662 124.54530518 140.83522949 125.3210791 140.92944336 126.12036133 C141 128 141 128 140 130 C139.7309844 132.11626831 139.51154619 134.23892691 139.31640625 136.36328125 C139.19330078 137.64267578 139.07019531 138.92207031 138.94335938 140.24023438 C138.75195814 142.27408698 138.56290024 144.30810367 138.37768555 146.3425293 C138.19714463 148.3083927 138.00687874 150.27335525 137.81640625 152.23828125 C137.70756104 153.41430908 137.59871582 154.59033691 137.48657227 155.80200195 C137.02412575 158.84143341 136.20011194 161.19029781 135 164 C134.814375 165.5778125 134.814375 165.5778125 134.625 167.1875 C133.35011124 174.96432143 129.66387873 182.07934018 126 189 C125.54625 189.86625 125.0925 190.7325 124.625 191.625 C117.88764368 204.2575431 117.88764368 204.2575431 114 209 C113.34 209 112.68 209 112 209 C111.73832031 209.56460938 111.47664063 210.12921875 111.20703125 210.7109375 C109.88993867 213.20872472 108.38761519 215.37074526 106.6875 217.625 C106.11386719 218.40101563 105.54023437 219.17703125 104.94921875 219.9765625 C102.77126976 222.23743941 100.96334834 223.0513205 98 224 C98 224.66 98 225.32 98 226 C97.360625 226.103125 96.72125 226.20625 96.0625 226.3125 C95.381875 226.539375 94.70125 226.76625 94 227 C93.67 227.99 93.34 228.98 93 230 C87.23060905 234.74372145 80.70932387 237.79340007 74 241 C72.66775391 241.68642578 72.66775391 241.68642578 71.30859375 242.38671875 C64.68545124 245.67361362 58.31850375 247.15961153 51.08984375 248.421875 C48.10227885 248.83424053 48.10227885 248.83424053 46 250 C44.61090696 250.08918777 43.21763093 250.11759541 41.82568359 250.11352539 C40.53457169 250.11341209 40.53457169 250.11341209 39.21737671 250.11329651 C37.8220018 250.10555458 37.8220018 250.10555458 36.3984375 250.09765625 C35.44683746 250.0962413 34.49523743 250.09482635 33.51480103 250.09336853 C30.46816903 250.08776012 27.42160987 250.07520619 24.375 250.0625 C22.31250106 250.05748608 20.25000097 250.05292299 18.1875 250.04882812 C13.12497183 250.03778796 8.06249827 250.02051767 3 250 C3 249.34 3 248.68 3 248 C1.845 248.04125 0.69 248.0825 -0.5 248.125 C-4.94481301 248.14087433 -8.73724131 247.21793105 -13 246 C-13 245.34 -13 244.68 -13 244 C-14.093125 243.855625 -15.18625 243.71125 -16.3125 243.5625 C-20 243 -20 243 -23 242 C-23 241.34 -23 240.68 -23 240 C-24.3303125 239.85498047 -24.3303125 239.85498047 -25.6875 239.70703125 C-29.25895262 238.94472827 -31.09986976 237.85795003 -34 235.6875 C-34.85335938 235.0584375 -35.70671875 234.429375 -36.5859375 233.78125 C-37.38257813 233.1934375 -38.17921875 232.605625 -39 232 C-40.20268986 231.22039076 -41.40991589 230.44764741 -42.625 229.6875 C-43.40875 229.130625 -44.1925 228.57375 -45 228 C-45 227.34 -45 226.68 -45 226 C-45.66 226 -46.32 226 -47 226 C-47 225.34 -47 224.68 -47 224 C-48.11375 223.62875 -48.11375 223.62875 -49.25 223.25 C-52.24973455 221.8864843 -53.92077267 220.54127785 -56 218 C-56 217.01 -56 216.02 -56 215 C-56.66 215 -57.32 215 -58 215 C-58 214.34 -58 213.68 -58 213 C-58.99 212.67 -59.98 212.34 -61 212 C-61 211.01 -61 210.02 -61 209 C-61.66 209 -62.32 209 -63 209 C-63.99 206.525 -63.99 206.525 -65 204 C-65.66 204 -66.32 204 -67 204 C-69.59804967 200.16051773 -71.7624034 196.05784373 -74 192 C-74.39832031 191.30003906 -74.79664063 190.60007812 -75.20703125 189.87890625 C-77.98769991 184.72746829 -79.55104814 179.27106402 -81.16796875 173.66015625 C-81.74188112 171.10352395 -81.74188112 171.10352395 -83 170 C-83.04092937 167.66702567 -83.04241723 165.33294775 -83 163 C-83.66 163 -84.32 163 -85 163 C-85.31932434 161.39717783 -85.62994514 159.7926221 -85.9375 158.1875 C-86.11152344 157.29417969 -86.28554687 156.40085938 -86.46484375 155.48046875 C-88.0119259 145.41878849 -88.23486721 135.34960802 -88.25 125.1875 C-88.25233643 124.46909943 -88.25467285 123.75069885 -88.25708008 123.01052856 C-88.27239546 110.47680391 -87.21931877 98.35156576 -85 86 C-84.34 86 -83.68 86 -83 86 C-83.0825 85.030625 -83.165 84.06125 -83.25 83.0625 C-83.27549117 78.87345043 -81.75520405 75.80691474 -79.95703125 72.08984375 C-78.88933488 69.75834352 -78.32794121 67.54154438 -78 65 C-77.34 65 -76.68 65 -76 65 C-75.855625 64.236875 -75.71125 63.47375 -75.5625 62.6875 C-75 60 -75 60 -74 57 C-73.34 57 -72.68 57 -72 57 C-71.9175 56.29875 -71.835 55.5975 -71.75 54.875 C-70.81990995 51.3096548 -69.23313631 48.90984428 -67 46 C-66.34 46 -65.68 46 -65 46 C-64.855625 45.38125 -64.71125 44.7625 -64.5625 44.125 C-64 42 -64 42 -63 40 C-62.34 40 -61.68 40 -61 40 C-60.76925781 39.4534375 -60.53851562 38.906875 -60.30078125 38.34375 C-58.6277493 35.32927802 -56.51550967 33.0409161 -54.1875 30.5 C-53.33542969 29.5615625 -52.48335937 28.623125 -51.60546875 27.65625 C-49.19350525 25.19727672 -46.72790905 23.09488842 -44 21 C-42.700625 19.88625 -42.700625 19.88625 -41.375 18.75 C-39 17 -39 17 -36 17 C-35.505 15.515 -35.505 15.515 -35 14 C-33.35 13.67 -31.7 13.34 -30 13 C-30 12.34 -30 11.68 -30 11 C-27.36 10.34 -24.72 9.68 -22 9 C-22 8.34 -22 7.68 -22 7 C-19.36 6.67 -16.72 6.34 -14 6 C-14 5.34 -14 4.68 -14 4 C-10.78817851 2.09391902 -8.46117397 1.77733753 -4.75 1.875 C-3.85796875 1.89304687 -2.9659375 1.91109375 -2.046875 1.9296875 C-1.03367187 1.96449219 -1.03367187 1.96449219 0 2 C0 1.34 0 0.68 0 0 Z M11 64 C11 64.66 11 65.32 11 66 C9.35 66.33 7.7 66.66 6 67 C6 67.66 6 68.32 6 69 C4.86884766 69.37511719 4.86884766 69.37511719 3.71484375 69.7578125 C-4.3365371 73.44175367 -8.76996267 84.25164455 -12 92 C-18.47346529 110.43082156 -20.19726856 133.53744152 -13 152 C-12.78472656 152.65355469 -12.56945313 153.30710937 -12.34765625 153.98046875 C-10.00615323 160.92184753 -6.04268323 166.93597516 -2 173 C-1.34 173 -0.68 173 0 173 C0 173.66 0 174.32 0 175 C0.66 175 1.32 175 2 175 C2 175.66 2 176.32 2 177 C5.58045212 179.74778884 8.4923533 181.46968862 13 182 C13 182.66 13 183.32 13 184 C23.84038045 185.99307443 32.89136619 185.53774343 43 181 C43 180.34 43 179.68 43 179 C43.721875 178.7525 44.44375 178.505 45.1875 178.25 C49.77750033 176.20999985 53.36285658 173.30270768 56 169 C56 168.01 56 167.02 56 166 C56.66 166 57.32 166 58 166 C59.4606285 163.35261084 60 162.10551666 60 159 C60.66 159 61.32 159 62 159 C62.41572266 157.28490234 62.41572266 157.28490234 62.83984375 155.53515625 C63.20554378 154.04422535 63.57143929 152.55334239 63.9375 151.0625 C64.11990234 150.30775391 64.30230469 149.55300781 64.49023438 148.77539062 C65.88671875 143.11328125 65.88671875 143.11328125 67 142 C67.08855161 139.3337397 67.11524673 136.69352886 67.09765625 134.02734375 C67.0962413 133.22970108 67.09482635 132.43205841 67.09336853 131.61024475 C67.08775316 129.05262565 67.07519812 126.49509282 67.0625 123.9375 C67.05748698 122.20768355 67.05292373 120.47786574 67.04882812 118.74804688 C67.03777875 114.49866447 67.02050386 110.24934688 67 106 C66.34 106 65.68 106 65 106 C64.97421875 105.39414063 64.9484375 104.78828125 64.921875 104.1640625 C64.36491539 95.93625008 61.7108472 89.28856983 58 82 C57.34 82 56.68 82 56 82 C55.67 80.35 55.34 78.7 55 77 C54.34 77 53.68 77 53 77 C52.71125 76.38125 52.4225 75.7625 52.125 75.125 C51.06279958 72.86674235 51.06279958 72.86674235 49 71 C48.01 71 47.02 71 46 71 C45.731875 70.360625 45.46375 69.72125 45.1875 69.0625 C44.11332248 66.66868314 44.11332248 66.66868314 41 66 C40.505 65.01 40.505 65.01 40 64 C37.67284 63.62599214 35.33882138 63.29235267 33 63 C32.505 62.505 32.505 62.505 32 62 C24.70095221 61.53912033 17.98359464 61.80906835 11 64 Z " fill="#C25216" transform="translate(1710,85)"/>
<path d="M0 0 C110 0 110 0 124 3 C126.31 3.33 128.62 3.66 131 4 C133.29296875 4.71875 133.29296875 4.71875 135.1875 5.5 C137.77190721 6.55271169 140.27855095 7.37243747 143 8 C143 8.66 143 9.32 143 10 C143.680625 10.0825 144.36125 10.165 145.0625 10.25 C148.8746907 11.22332528 151.64070329 12.95807455 155 15 C155 15.66 155 16.32 155 17 C156.65 17.66 158.3 18.32 160 19 C160 19.66 160 20.32 160 21 C160.66 21 161.32 21 162 21 C162 21.66 162 22.32 162 23 C162.66 23 163.32 23 164 23 C165.73494401 25.00575003 167.34496941 27.01081797 168.9375 29.125 C169.38029297 29.69476563 169.82308594 30.26453125 170.27929688 30.8515625 C173.9313504 35.64114089 177 39.7822283 177 46 C177.66 46 178.32 46 179 46 C181.03090109 52.00329254 182.36818243 57.63550711 182.7890625 63.96875 C182.88627957 66.06625542 182.88627957 66.06625542 184 68 C184.09792892 70.5115887 184.13907983 72.98909766 184.125 75.5 C184.12886719 76.18964844 184.13273437 76.87929687 184.13671875 77.58984375 C184.12666646 82.74666707 184.12666646 82.74666707 183 85 C182.84503604 86.51807286 182.725082 88.03982386 182.625 89.5625 C182.16874069 94.70102704 180.84306302 99.20108119 179 104 C178.34 104 177.68 104 177 104 C177.0825 104.680625 177.165 105.36125 177.25 106.0625 C176.90053135 110.16875665 175.18150968 112.52321895 173 116 C172.34 116 171.68 116 171 116 C170.67 117.32 170.34 118.64 170 120 C169.34 120 168.68 120 168 120 C168 120.66 168 121.32 168 122 C167.34 122 166.68 122 166 122 C165.6596875 122.8353125 165.6596875 122.8353125 165.3125 123.6875 C160.79624213 131.64471624 151.55922543 137.47085479 143 140 C144.86822143 152.07267333 147.15805958 163.11274739 153 174 C153.433125 175.1446875 153.433125 175.1446875 153.875 176.3125 C154.92737766 178.28572724 154.92737766 178.28572724 157.625 178.75 C158.40875 178.8325 159.1925 178.915 160 179 C160 179.66 160 180.32 160 181 C168.58 181 177.16 181 186 181 C188.16979266 185.33958531 188.32744143 188.56460688 188.37890625 193.2734375 C188.39590073 194.07480133 188.4128952 194.87616516 188.43040466 195.70181274 C188.48342785 198.25946195 188.5237512 200.81709792 188.5625 203.375 C188.60660181 205.92567544 188.65349669 208.47623316 188.70530701 211.02676392 C188.73694917 212.61161428 188.7639332 214.19656672 188.78553772 215.78158569 C188.86299436 219.95823061 189.2453412 223.87914616 190 228 C190.11420501 230.58156437 190.17473292 233.16594227 190.1875 235.75 C190.20167969 237.06484375 190.21585938 238.3796875 190.23046875 239.734375 C190 243 190 243 188 245 C182.14087265 246.83211228 176.82444408 247.29609739 170.71484375 247.265625 C169.424963 247.26849518 169.424963 247.26849518 168.10902405 247.27142334 C166.30306707 247.27277602 164.49710005 247.26914415 162.69116211 247.26074219 C159.94167081 247.25001627 157.19283082 247.26067552 154.44335938 247.2734375 C152.67968607 247.272116 150.91601317 247.2695538 149.15234375 247.265625 C147.93175514 247.27169769 147.93175514 247.27169769 146.68650818 247.27789307 C141.74218918 247.23764596 137.69359825 246.5657784 133 245 C132.26910156 244.79117188 131.53820313 244.58234375 130.78515625 244.3671875 C129.19010417 243.91145833 127.59505208 243.45572917 126 243 C126 242.34 126 241.68 126 241 C125.34 240.938125 124.68 240.87625 124 240.8125 C119.8783325 239.69621505 116.34249498 237.66238434 113 235 C113 234.34 113 233.68 113 233 C112.4225 232.71125 111.845 232.4225 111.25 232.125 C110.5075 231.75375 109.765 231.3825 109 231 C108.319375 230.731875 107.63875 230.46375 106.9375 230.1875 C104.30304092 228.57283153 103.3409359 226.7489186 102 224 C102 223.01 102 222.02 102 221 C101.01 220.67 100.02 220.34 99 220 C97.35179805 217.39757586 97 216.13751221 97 213 C96.34 213 95.68 213 95 213 C93.5393715 210.35261084 93 209.10551666 93 206 C92.34 206 91.68 206 91 206 C91 203.69 91 201.38 91 199 C90.34 199 89.68 199 89 199 C88.58427734 197.39318359 88.58427734 197.39318359 88.16015625 195.75390625 C87.79445076 194.35672373 87.42855554 192.95959085 87.0625 191.5625 C86.88009766 190.85544922 86.69769531 190.14839844 86.50976562 189.41992188 C85.81850626 185.92425139 85.81850626 185.92425139 84 183 C83.71491101 181.39413549 83.48551807 179.77828824 83.28125 178.16015625 C83.15363281 177.17982422 83.02601562 176.19949219 82.89453125 175.18945312 C82.76433594 174.15755859 82.63414063 173.12566406 82.5 172.0625 C82.24286275 170.03213407 81.98259893 168.0021609 81.71875 165.97265625 C81.60466797 165.06781494 81.49058594 164.16297363 81.37304688 163.23071289 C81.10710635 160.96957937 81.10710635 160.96957937 80 159 C79.95977609 156.6670134 79.95679753 154.33293334 80 152 C76.7 152 73.4 152 70 152 C70.00222061 153.13561371 70.00444122 154.27122742 70.00672913 155.44125366 C70.02696919 166.12455067 70.04197633 176.80784381 70.05181217 187.49115562 C70.05703879 192.98402071 70.06413246 198.47687036 70.07543945 203.96972656 C70.08627614 209.26704689 70.09227851 214.56435234 70.09487724 219.86168289 C70.09673007 221.88636128 70.10034799 223.91103882 70.10573006 225.93571091 C70.11295083 228.76363661 70.1139905 231.59150021 70.11352539 234.41943359 C70.11712067 235.26316025 70.12071594 236.1068869 70.12442017 236.97618103 C70.11405216 242.77189568 70.11405216 242.77189568 69 245 C46.23 245 23.46 245 0 245 C0 164.15 0 83.3 0 0 Z M70 55 C70 69.85 70 84.7 70 100 C87.63049207 100.46255384 87.63049207 100.46255384 105 98 C105 97.34 105 96.68 105 96 C105.9075 95.9175 106.815 95.835 107.75 95.75 C111.42008088 94.90305826 112.69866328 93.92092737 115 91 C115 90.34 115 89.68 115 89 C115.66 89 116.32 89 117 89 C118.96529338 79.49100358 120.2468521 70.59802086 115.1875 61.875 C112.74222713 59.77905182 111.18002912 59.26500243 108 59 C108 58.34 108 57.68 108 57 C107.36191406 56.93941406 106.72382812 56.87882812 106.06640625 56.81640625 C105.24011719 56.73261719 104.41382813 56.64882812 103.5625 56.5625 C102.73878906 56.48128906 101.91507813 56.40007812 101.06640625 56.31640625 C99 56 99 56 98 55 C95.92737924 54.91232888 93.85179706 54.89304127 91.77734375 54.90234375 C90.64288818 54.90484131 89.50843262 54.90733887 88.33959961 54.90991211 C86.88690674 54.91901611 85.43421387 54.92812012 83.9375 54.9375 C79.338125 54.958125 74.73875 54.97875 70 55 Z " fill="#C25216" transform="translate(1858,88)"/>
<path d="M0 0 C33.33 0 66.66 0 101 0 C106.39583333 16.1875 106.39583333 16.1875 106.75390625 21.94921875 C107.13255608 25.10463403 108.29166405 27.93809955 109.3671875 30.9140625 C110.19868414 33.6549218 110.21852271 36.15920476 110 39 C110.66 39 111.32 39 112 39 C114.9296875 50.71875 114.9296875 50.71875 115.46386719 52.85717773 C115.82282223 54.29185368 116.18285758 55.72625973 116.54394531 57.16040039 C117.40321251 60.57794036 118.24833581 63.99460956 119 67.4375 C119.165 68.18386719 119.33 68.93023437 119.5 69.69921875 C119.83982116 71.26292708 120.17291672 72.82810899 120.5 74.39453125 C120.665 75.17183594 120.83 75.94914062 121 76.75 C121.2165625 77.79414063 121.2165625 77.79414063 121.4375 78.859375 C121.96409462 81.06346706 121.96409462 81.06346706 122.96484375 83.3125 C124.22332144 86.57979302 124.87685274 89.81817392 125.5625 93.25 C126.08011615 97.4481378 126.08011615 97.4481378 128 101 C128.14115161 103.67058851 128.04247107 106.32432238 128 109 C128.66 109 129.32 109 130 109 C130.50604924 111.39469729 131.00499517 113.79051717 131.5 116.1875 C131.64308594 116.86103516 131.78617188 117.53457031 131.93359375 118.22851562 C132.68069842 121.87509793 133.17352282 125.27648957 133 129 C133.66 129 134.32 129 135 129 C136.26305335 134.07476794 137.27036084 138.72796354 137 144 C137.66 144 138.32 144 139 144 C139 146.64 139 149.28 139 152 C139.66 152 140.32 152 141 152 C141.50604924 154.39469729 142.00499517 156.79051717 142.5 159.1875 C142.64308594 159.86103516 142.78617188 160.53457031 142.93359375 161.22851562 C143.68069842 164.87509793 144.17352282 168.27648957 144 172 C144.66 172 145.32 172 146 172 C148.29612756 181.41002278 148.29612756 181.41002278 148 186 C148.66 186 149.32 186 150 186 C150 189.3 150 192.6 150 196 C150.66 196 151.32 196 152 196 C152.26554688 197.24136719 152.53109375 198.48273438 152.8046875 199.76171875 C153.16123096 201.40369522 153.51801444 203.04561959 153.875 204.6875 C154.04902344 205.50412109 154.22304688 206.32074219 154.40234375 207.16210938 C155.30638422 211.29725746 156.35147988 215.0890757 158 219 C158.38872027 220.57520634 158.74482269 222.15894387 159.0625 223.75 C159.48335608 226.65761214 159.48335608 226.65761214 161 229 C161.07244053 231.01964199 161.08377188 233.04167124 161.0625 235.0625 C161.05347656 236.16722656 161.04445313 237.27195312 161.03515625 238.41015625 C161.01775391 239.69212891 161.01775391 239.69212891 161 241 C150.97772237 241.0231241 140.95545103 241.04091543 130.9331522 241.05181217 C126.27988814 241.05704085 121.62664226 241.06413823 116.97338867 241.07543945 C112.48655454 241.08626886 107.99973796 241.09227695 103.51289177 241.09487724 C101.79719707 241.0967314 100.08150338 241.10035182 98.36581612 241.10573006 C95.97115087 241.11294121 93.57655904 241.11399091 91.18188477 241.11352539 C90.46547318 241.11712067 89.74906158 241.12071594 89.01094055 241.12442017 C84.11405216 241.11405216 84.11405216 241.11405216 83 240 C82.67762788 237.42102306 82.48732696 234.84068179 82.28125 232.25 C82.23799335 230.03334648 82.23799335 230.03334648 81 229 C80.64170228 226.98024713 80.34000779 224.95039793 80.0625 222.91796875 C79.88976562 221.67595703 79.71703125 220.43394531 79.5390625 219.15429688 C79.35907885 217.83207153 79.17939444 216.50980542 79 215.1875 C78.64773032 212.61822878 78.29364155 210.04920613 77.9375 207.48046875 C77.70353516 205.76186646 77.70353516 205.76186646 77.46484375 204.00854492 C77.01812602 200.81309929 77.01812602 200.81309929 76 197 C59.17 197 42.34 197 25 197 C24.67 199.31 24.34 201.62 24 204 C23.67794612 205.87697027 23.34541767 207.75218855 23 209.625 C22.835 210.52476562 22.67 211.42453125 22.5 212.3515625 C22.17914452 214.05109385 21.8443963 215.7480947 21.4921875 217.44140625 C20.72070789 221.45187564 20.23240354 225.50306786 19.6953125 229.55078125 C19 233 19 233 16 241 C-8.42 241 -32.84 241 -58 241 C-58 235.23733435 -57.84019692 231.23275955 -56.625 225.8125 C-56.36976563 224.64332031 -56.11453125 223.47414063 -55.8515625 222.26953125 C-55 219 -55 219 -53.96875 216.4375 C-52.8797086 213.69733133 -52.36494632 211.09218176 -51.875 208.1875 C-51.70742188 207.21167969 -51.53984375 206.23585938 -51.3671875 205.23046875 C-51.24601563 204.49441406 -51.12484375 203.75835937 -51 203 C-50.34 203 -49.68 203 -49 203 C-49.02320313 202.41992188 -49.04640625 201.83984375 -49.0703125 201.2421875 C-49.08835937 200.46101562 -49.10640625 199.67984375 -49.125 198.875 C-49.14820313 198.10929688 -49.17140625 197.34359375 -49.1953125 196.5546875 C-48.95856115 193.45797982 -48.01636198 190.93293028 -47 188 C-46.42782867 185.54858704 -45.88655704 183.08977483 -45.375 180.625 C-45.11460937 179.37976563 -44.85421875 178.13453125 -44.5859375 176.8515625 C-44.39257812 175.91054688 -44.19921875 174.96953125 -44 174 C-43.34 174 -42.68 174 -42 174 C-41.90912109 172.87851562 -41.90912109 172.87851562 -41.81640625 171.734375 C-41.73261719 170.74953125 -41.64882813 169.7646875 -41.5625 168.75 C-41.48128906 167.77546875 -41.40007813 166.8009375 -41.31640625 165.796875 C-41.04925416 163.43538247 -40.64628032 161.28098935 -40 159 C-39.34 159 -38.68 159 -38 159 C-38.02320313 158.33613281 -38.04640625 157.67226562 -38.0703125 156.98828125 C-38.09738281 155.66376953 -38.09738281 155.66376953 -38.125 154.3125 C-38.14820313 153.44238281 -38.17140625 152.57226562 -38.1953125 151.67578125 C-37.9793959 148.71772377 -37.12623096 146.73513233 -36 144 C-35.41149225 141.39490836 -34.86684588 138.80984157 -34.375 136.1875 C-34.2409375 135.49462891 -34.106875 134.80175781 -33.96875 134.08789062 C-33.64141712 132.39277391 -33.32009406 130.69649854 -33 129 C-32.34 129 -31.68 129 -31 129 C-30.93941406 128.33613281 -30.87882813 127.67226562 -30.81640625 126.98828125 C-29.98418278 118.21792619 -29.98418278 118.21792619 -29 114 C-28.34 114 -27.68 114 -27 114 C-27.02320313 113.33613281 -27.04640625 112.67226562 -27.0703125 111.98828125 C-27.08835937 111.10527344 -27.10640625 110.22226563 -27.125 109.3125 C-27.14820313 108.44238281 -27.17140625 107.57226562 -27.1953125 106.67578125 C-27 104 -27 104 -26.1171875 101.796875 C-24.12915144 96.81983367 -23.46587868 91.47253515 -22.5 86.21679688 C-22.335 85.34990234 -22.17 84.48300781 -22 83.58984375 C-21.855625 82.80472412 -21.71125 82.01960449 -21.5625 81.21069336 C-20.98023546 78.92232294 -20.06851072 77.09668515 -19 75 C-18.61709538 73.00889599 -18.27395385 71.00899487 -18 69 C-17.34 69 -16.68 69 -16 69 C-16.01160156 68.36191406 -16.02320313 67.72382813 -16.03515625 67.06640625 C-16.04417969 66.24011719 -16.05320312 65.41382813 -16.0625 64.5625 C-16.07410156 63.73878906 -16.08570313 62.91507813 -16.09765625 62.06640625 C-16 60 -16 60 -15 59 C-14.66767182 57.61328513 -14.38572029 56.21444332 -14.125 54.8125 C-12.85537835 48.18545973 -11.42543238 41.59500048 -10 35 C-9.34 35 -8.68 35 -8 35 C-7.95101562 34.31035156 -7.90203125 33.62070313 -7.8515625 32.91015625 C-6.54992548 16.54992548 -6.54992548 16.54992548 -4 14 C-3.80698852 12.10205373 -3.61694579 10.20334426 -3.4765625 8.30078125 C-3 6 -3 6 0 0 Z M50 57 C49.04738513 61.76307437 48.91666643 66.1666528 49 71 C48.34 71 47.68 71 47 71 C46.93941406 71.71027344 46.87882813 72.42054688 46.81640625 73.15234375 C46.73261719 74.07144531 46.64882813 74.99054688 46.5625 75.9375 C46.48128906 76.85402344 46.40007812 77.77054688 46.31640625 78.71484375 C46 81 46 81 45 82 C44.62913819 83.99338221 44.30262289 85.99512332 44 88 C43.11111111 93.88888889 43.11111111 93.88888889 42 95 C41.71292924 97.97095452 41.55137382 100.94222256 41.37890625 103.921875 C41 107 41 107 40.03881836 109.34912109 C38.96247156 112.09576588 38.44969368 114.58072208 38 117.4921875 C37.835 118.52730469 37.67 119.56242187 37.5 120.62890625 C37.2525 122.23572266 37.2525 122.23572266 37 123.875 C35.15006717 135.79839521 35.15006717 135.79839521 33.8828125 140.04296875 C32.94937288 143.16957845 32.84174171 145.7557051 33 149 C32.01 149.495 32.01 149.495 31 150 C43.21 150 55.42 150 68 150 C67.30377793 140.91097834 67.30377793 140.91097834 65 133 C64.6075351 130.92899801 64.26396987 128.84824733 63.96484375 126.76171875 C63.79533203 125.61251953 63.62582031 124.46332031 63.45117188 123.27929688 C63.1969043 121.50135742 63.1969043 121.50135742 62.9375 119.6875 C62.59615776 117.31586934 62.25130381 114.94474051 61.90234375 112.57421875 C61.75273193 111.52838623 61.60312012 110.48255371 61.44897461 109.4050293 C61.24507797 107.05663252 61.24507797 107.05663252 60 106 C59.76712992 104.31816052 59.58735834 102.6287584 59.4375 100.9375 C59.31181641 99.55884766 59.31181641 99.55884766 59.18359375 98.15234375 C59.12300781 97.44207031 59.06242188 96.73179687 59 96 C58.34 96 57.68 96 57 96 C57.05027344 94.92878906 57.10054687 93.85757813 57.15234375 92.75390625 C57.15107525 86.99112805 55.81487862 81.53697795 54.5625 75.9375 C51.75745826 63.13802382 51.75745826 63.13802382 51 57 C50.67 57 50.34 57 50 57 Z " fill="#000000" transform="translate(715,92)"/>
<path d="M0 0 C49.5 0 99 0 150 0 C150 18.15 150 36.3 150 55 C125.91 55 101.82 55 77 55 C77 67.87 77 80.74 77 94 C83.87779297 93.98259766 83.87779297 93.98259766 90.89453125 93.96484375 C93.79752745 93.95973485 96.70051812 93.95492092 99.60351562 93.95117188 C104.21233266 93.94519169 108.82112984 93.93811333 113.42993164 93.92456055 C117.14519659 93.91370356 120.86044025 93.90771718 124.57571983 93.90512276 C125.99390689 93.90327359 127.41209276 93.89966269 128.83027077 93.89426994 C130.81497692 93.88702236 132.79970444 93.88659162 134.78442383 93.88647461 C135.91471512 93.884254 137.04500641 93.88203339 138.20954895 93.87974548 C141 94 141 94 144 95 C144.02527062 101.39037231 144.04283317 107.78073183 144.05493164 114.17114258 C144.05997308 116.34692873 144.06680607 118.52271147 144.07543945 120.69848633 C144.08751338 123.81853067 144.09323005 126.93853038 144.09765625 130.05859375 C144.10281754 131.03775253 144.10797882 132.01691132 144.11329651 133.02574158 C144.11337204 133.92659988 144.11344757 134.82745819 144.11352539 135.75561523 C144.115746 136.55281479 144.11796661 137.35001434 144.12025452 138.17137146 C144 140 144 140 143 141 C140.94443339 141.09413687 138.88559819 141.11742998 136.82788086 141.11352539 C135.86205833 141.11374443 135.86205833 141.11374443 134.87672424 141.1139679 C132.73939697 141.11326885 130.60215587 141.10547691 128.46484375 141.09765625 C126.98653715 141.09579204 125.50822993 141.09436815 124.02992249 141.09336853 C120.13201198 141.08954359 116.23413851 141.07971352 112.33624268 141.06866455 C107.66316239 141.05665516 102.99006974 141.05204808 98.31697845 141.04621124 C91.21129318 141.03650174 84.10568924 141.01734505 77 141 C77 155.52 77 170.04 77 185 C101.09 185 125.18 185 150 185 C150 203.48 150 221.96 150 241 C100.17 241 50.34 241 -1 241 C-1.04030303 181.14551607 -1.04030303 181.14551607 -1.04882812 156.140625 C-1.05078611 150.42643226 -1.05280662 144.71223955 -1.05493164 138.99804688 C-1.05519539 138.28182891 -1.05545914 137.56561095 -1.05573088 136.82768941 C-1.06008462 125.252728 -1.06797087 113.67777155 -1.0771528 102.10281308 C-1.086492 90.23089345 -1.09205618 78.35897642 -1.09408849 66.48705328 C-1.09533956 59.8157928 -1.0984811 53.1445422 -1.10573006 46.47328568 C-1.11249072 40.20090636 -1.11461686 33.92854297 -1.11310768 27.65616035 C-1.11338399 25.3478175 -1.11538884 23.03947413 -1.11920547 20.73113441 C-1.12414341 17.59202747 -1.12299789 14.4529815 -1.12025452 11.31387329 C-1.12316736 10.38976233 -1.1260802 9.46565137 -1.12908131 8.51353705 C-1.11412121 2.22824242 -1.11412121 2.22824242 0 0 Z " fill="#000000" transform="translate(1041,92)"/>
<path d="M0 0 C12.62995485 -0.02312132 25.2599047 -0.04091401 37.88987637 -0.05181217 C43.75382164 -0.05704146 49.61775249 -0.06413994 55.48168945 -0.07543945 C61.13561712 -0.0862667 66.78953087 -0.09227649 72.44346809 -0.09487724 C74.6057361 -0.09673179 76.76800331 -0.10035295 78.93026543 -0.10573006 C81.94758657 -0.11293833 84.96484943 -0.11399103 87.98217773 -0.11352539 C88.8856041 -0.11712067 89.78903046 -0.12071594 90.71983337 -0.12442017 C96.88594784 -0.11405216 96.88594784 -0.11405216 98 1 C101.62266294 1.28528471 105.24530434 1.44912228 108.875 1.62109375 C110.421875 1.80865234 110.421875 1.80865234 112 2 C112.495 2.99 112.495 2.99 113 4 C115.31 4 117.62 4 120 4 C120 4.66 120 5.32 120 6 C120.61488281 6.06058594 121.22976563 6.12117188 121.86328125 6.18359375 C123.07564453 6.30927734 123.07564453 6.30927734 124.3125 6.4375 C125.11300781 6.51871094 125.91351562 6.59992188 126.73828125 6.68359375 C129 7 129 7 132 8 C132 8.66 132 9.32 132 10 C134.31 10.33 136.62 10.66 139 11 C139 11.66 139 12.32 139 13 C139.763125 13.144375 140.52625 13.28875 141.3125 13.4375 C144 14 144 14 147 15 C147 15.66 147 16.32 147 17 C147.70125 17.226875 148.4025 17.45375 149.125 17.6875 C152.74128535 19.33841288 155.08769976 21.2908835 158 24 C158 24.66 158 25.32 158 26 C158.598125 26.268125 159.19625 26.53625 159.8125 26.8125 C163.84514494 29.00165011 165.88589608 31.96398342 168 36 C168.6875 38.8125 168.6875 38.8125 169 41 C169.66 41 170.32 41 171 41 C173.15305957 44.85756507 174.39253254 47.55129785 174 52 C174.66 52 175.32 52 176 52 C178.19387541 59.73950493 178.3068594 67.253142 178.26074219 75.22875977 C178.250039 77.4294806 178.26067557 79.62938233 178.2734375 81.83007812 C178.27984716 89.40340835 177.96696115 96.63509704 176 104 C175.34 104 174.68 104 174 104 C174.061875 104.86625 174.12375 105.7325 174.1875 106.625 C173.97544498 110.44199033 172.87955693 112.71077536 171 116 C170.34 116 169.68 116 169 116 C169 117.65 169 119.3 169 121 C168.34 121 167.68 121 167 121 C166.34 122.98 165.68 124.96 165 127 C164.34 127 163.68 127 163 127 C163 127.66 163 128.32 163 129 C162.34 129 161.68 129 161 129 C160.67 129.99 160.34 130.98 160 132 C159.34 132 158.68 132 158 132 C157.773125 132.556875 157.54625 133.11375 157.3125 133.6875 C155.23753357 137.34339324 152.72136865 140.3951948 148.6875 141.8125 C148.130625 141.874375 147.57375 141.93625 147 142 C147 142.99 147 143.98 147 145 C145.39967863 145.84069415 143.79458829 146.67231505 142.1875 147.5 C141.29417969 147.9640625 140.40085937 148.428125 139.48046875 148.90625 C137 150 137 150 134 150 C134 150.66 134 151.32 134 152 C111.72170713 158.72383085 95.06036085 160 70 160 C70 186.73 70 213.46 70 241 C46.9 241 23.8 241 0 241 C-0.77042267 237.91830933 -1.12513917 235.92158301 -1.12584114 232.8617239 C-1.12844889 232.04049524 -1.13105664 231.21926658 -1.13374341 230.3731522 C-1.13151268 229.47636802 -1.12928196 228.57958384 -1.12698364 227.65562439 C-1.12854363 226.69877214 -1.13010362 225.74191988 -1.13171089 224.7560721 C-1.1357076 221.54171156 -1.13253636 218.32739803 -1.12939453 215.11303711 C-1.13074915 212.81192497 -1.13252943 210.51081305 -1.13470459 208.20970154 C-1.13927144 201.95373275 -1.13749249 195.69778041 -1.1343255 189.44181132 C-1.13179836 182.9035543 -1.13414041 176.36529871 -1.13571167 169.82704163 C-1.13784898 158.14338258 -1.13453645 146.45973047 -1.12945233 134.77607263 C-1.12498348 124.17810395 -1.12576142 113.58014622 -1.13037109 102.98217773 C-1.13571985 90.67921505 -1.13771617 78.37625934 -1.13475883 66.07329565 C-1.13319717 59.55911945 -1.13299929 53.04495079 -1.13629532 46.53077507 C-1.13917654 40.40853814 -1.13719368 34.28632197 -1.13140106 28.1640873 C-1.13007488 25.91260182 -1.1304652 23.66111461 -1.13266373 21.40962982 C-1.1353807 18.34552667 -1.13198731 15.28149079 -1.12698364 12.21739197 C-1.12921436 11.31837707 -1.13144509 10.41936217 -1.13374341 9.4931044 C-1.13113566 8.67448348 -1.12852791 7.85586257 -1.12584114 7.01243496 C-1.12567879 6.30490595 -1.12551644 5.59737695 -1.12534916 4.86840767 C-1 3 -1 3 0 0 Z M70 52 C70 70.81 70 89.62 70 109 C88.28263388 109.72310153 88.28263388 109.72310153 99 107 C99.33 106.34 99.66 105.68 100 105 C100.66 105 101.32 105 102 105 C102 104.34 102 103.68 102 103 C102.99 103 103.98 103 105 103 C108.05076843 99.96344042 108.05076843 99.96344042 109 96 C109.66 96 110.32 96 111 96 C115.19672099 86.76721383 114.27360573 76.49538922 112.375 66.8125 C110.71669868 63.42052003 108.8950618 62.15002804 105.75390625 60.17578125 C104 59 104 59 101 56 C90.09741088 51.91109679 90.09741088 51.91109679 70 52 Z " fill="#000000" transform="translate(502,92)"/>
<path d="M0 0 C1.3183786 -0.01441132 1.3183786 -0.01441132 2.66339111 -0.02911377 C3.62364197 -0.03336365 4.58389282 -0.03761353 5.57324219 -0.04199219 C6.56201355 -0.04769226 7.55078491 -0.05339233 8.56951904 -0.05926514 C10.6745903 -0.06874017 12.77967655 -0.07525899 14.88476562 -0.07910156 C18.06505561 -0.08870099 21.24466957 -0.11965503 24.42480469 -0.15136719 C38.50799646 -0.22751731 50.81081506 0.33087562 63.43261719 7.22363281 C64.43905273 7.75053711 64.43905273 7.75053711 65.46582031 8.28808594 C67.27272095 9.23541046 69.07183512 10.19754822 70.87011719 11.16113281 C72.20048576 11.83369632 73.53205129 12.50401648 74.87011719 13.16113281 C74.87011719 13.82113281 74.87011719 14.48113281 74.87011719 15.16113281 C75.86011719 15.49113281 76.85011719 15.82113281 77.87011719 16.16113281 C76.57799972 40.74536774 76.57799972 40.74536774 73.87011719 46.16113281 C73.60645893 47.69316209 73.38483547 49.23256397 73.18652344 50.77441406 C73.06341797 51.69287109 72.9403125 52.61132812 72.81347656 53.55761719 C72.56114055 55.48960519 72.31111093 57.42189593 72.06347656 59.35449219 C71.87688477 60.73797852 71.87688477 60.73797852 71.68652344 62.14941406 C71.57767822 62.99028564 71.46883301 63.83115723 71.35668945 64.69750977 C70.83074521 67.36048183 69.94871512 69.675668 68.87011719 72.16113281 C65.33426467 72.16113281 63.22888791 71.81209073 59.93261719 70.78613281 C59.04832031 70.5115625 58.16402344 70.23699219 57.25292969 69.95410156 C54.87011719 69.16113281 54.87011719 69.16113281 52.30761719 68.09863281 C44.66832012 65.16044163 37.0422247 64.82311485 28.93261719 64.84863281 C27.40217773 64.82446289 27.40217773 64.82446289 25.84082031 64.79980469 C16.25043034 64.79368446 8.4396003 66.59734414 0.56152344 72.17285156 C-1.12988281 73.16113281 -1.12988281 73.16113281 -4.12988281 73.16113281 C-4.53207031 74.05832031 -4.53207031 74.05832031 -4.94238281 74.97363281 C-6.12905688 77.15961135 -7.22587394 78.57445875 -9.12988281 80.16113281 C-9.78988281 80.16113281 -10.44988281 80.16113281 -11.12988281 80.16113281 C-11.30390625 81.03318359 -11.30390625 81.03318359 -11.48144531 81.92285156 C-12.17328764 84.31095793 -13.12230719 85.91652787 -14.50488281 87.97363281 C-25.85180349 105.77656009 -25.85617021 130.53418355 -21.79199219 150.68823242 C-18.9444423 162.43205687 -13.74293993 172.57900326 -4.12988281 180.16113281 C-4.12988281 180.82113281 -4.12988281 181.48113281 -4.12988281 182.16113281 C-3.42863281 182.42925781 -2.72738281 182.69738281 -2.00488281 182.97363281 C0.87011719 184.16113281 0.87011719 184.16113281 3.80761719 185.66113281 C9.94775071 188.66854515 14.95203674 189.4576533 21.68261719 189.34863281 C22.45798828 189.34798828 23.23335937 189.34734375 24.03222656 189.34667969 C27.75474485 189.66359907 27.75474485 189.66359907 30.87011719 188.16113281 C30.99341807 186.35145541 31.04801902 184.53705444 31.07543945 182.72338867 C31.10535728 180.98169655 31.10535728 180.98169655 31.13587952 179.20481873 C31.15259201 177.94130081 31.1693045 176.6777829 31.18652344 175.37597656 C31.21769508 173.44704308 31.21769508 173.44704308 31.24949646 171.47914124 C31.30477895 168.05477378 31.3541608 164.63034532 31.40234375 161.20587158 C31.45251384 157.71368967 31.50822329 154.22159671 31.56347656 150.72949219 C31.67113358 143.87344948 31.77256168 137.01732648 31.87011719 130.16113281 C42.86135534 126.97025842 53.96428378 125.86602988 65.32983398 124.85839844 C66.16297119 124.78169922 66.9961084 124.705 67.85449219 124.62597656 C68.97936035 124.52724243 68.97936035 124.52724243 70.12695312 124.42651367 C71.89533364 124.33345896 71.89533364 124.33345896 72.87011719 123.16113281 C75.03492515 123.06220342 77.20305504 123.03142181 79.37011719 123.03613281 C80.55605469 123.03355469 81.74199219 123.03097656 82.96386719 123.02832031 C85.87011719 123.16113281 85.87011719 123.16113281 86.87011719 124.16113281 C86.96773683 125.56066904 86.99643374 126.96509024 86.99710083 128.36802673 C86.99992065 129.27523972 87.00274048 130.1824527 87.00564575 131.11715698 C87.00260941 132.62187057 87.00260941 132.62187057 86.99951172 134.15698242 C87.0021402 135.73246101 87.0021402 135.73246101 87.00482178 137.33976746 C87.00924302 140.83102036 87.00630113 144.32222309 87.00292969 147.81347656 C87.0036027 150.22864288 87.0045727 152.64380913 87.00582886 155.05897522 C87.00730624 160.12908572 87.00515016 165.19917865 87.00048828 170.26928711 C86.99479402 176.78098165 86.99806784 183.29263495 87.00406075 189.80432796 C87.00766786 194.79444186 87.00652702 199.78454592 87.00393295 204.77466011 C87.00326394 207.17613289 87.0040912 209.57760655 87.00641251 211.97907829 C87.00894114 215.3313726 87.00509526 218.68359941 86.99951172 222.03588867 C87.00153595 223.03700684 87.00356018 224.038125 87.00564575 225.06958008 C87.00282593 225.97961288 87.0000061 226.88964569 86.99710083 227.82725525 C86.99653529 229.01718535 86.99653529 229.01718535 86.99595833 230.23115444 C86.87011719 232.16113281 86.87011719 232.16113281 85.87011719 234.16113281 C83.54855122 234.56842509 81.21323849 234.90551958 78.87011719 235.16113281 C78.87011719 235.82113281 78.87011719 236.48113281 78.87011719 237.16113281 C72.91200434 239.72484002 66.8507973 241.91592414 60.68261719 243.91113281 C60.01810547 244.13373779 59.35359375 244.35634277 58.66894531 244.58569336 C54.28335883 245.97333735 50.45558441 246.37524023 45.87011719 246.16113281 C45.87011719 246.82113281 45.87011719 247.48113281 45.87011719 248.16113281 C35.99024916 249.89655827 26.46960518 250.47781095 16.46459961 250.421875 C14.17437588 250.41109402 11.88492767 250.42187275 9.59472656 250.43457031 C-6.0482461 250.44955714 -18.7651327 247.03545943 -33.12988281 241.16113281 C-34.79606758 240.49326266 -36.46260523 239.82627015 -38.12988281 239.16113281 C-38.12988281 238.50113281 -38.12988281 237.84113281 -38.12988281 237.16113281 C-39.11988281 237.16113281 -40.10988281 237.16113281 -41.12988281 237.16113281 C-41.12988281 236.50113281 -41.12988281 235.84113281 -41.12988281 235.16113281 C-41.72800781 235.01675781 -42.32613281 234.87238281 -42.94238281 234.72363281 C-46.62186315 233.77748073 -48.53211363 232.87184848 -51.12988281 230.16113281 C-51.78988281 229.83113281 -52.44988281 229.50113281 -53.12988281 229.16113281 C-53.12988281 228.50113281 -53.12988281 227.84113281 -53.12988281 227.16113281 C-53.72800781 226.89300781 -54.32613281 226.62488281 -54.94238281 226.34863281 C-57.12836135 225.16195875 -58.54320875 224.06514169 -60.12988281 222.16113281 C-60.12988281 221.50113281 -60.12988281 220.84113281 -60.12988281 220.16113281 C-60.97292969 220.09539062 -60.97292969 220.09539062 -61.83300781 220.02832031 C-65.23257435 218.7448105 -66.8281378 216.13986284 -68.87988281 213.28613281 C-69.29109375 212.7434375 -69.70230469 212.20074219 -70.12597656 211.64160156 C-73.12988281 207.55988177 -73.12988281 207.55988177 -73.12988281 204.16113281 C-73.78988281 204.16113281 -74.44988281 204.16113281 -75.12988281 204.16113281 C-86.77101428 182.71545615 -86.77101428 182.71545615 -89.51660156 170.56738281 C-89.89545046 168.22537701 -89.89545046 168.22537701 -91.12988281 167.16113281 C-93.87199757 154.4451084 -94.43367204 141.74332091 -94.44238281 128.78613281 C-94.44569611 128.07409698 -94.4490094 127.36206116 -94.4524231 126.62844849 C-94.53684155 95.90499379 -86.7959178 64.37361674 -67.12988281 40.16113281 C-66.31777344 39.05898437 -66.31777344 39.05898437 -65.48925781 37.93457031 C-56.70455183 26.10291676 -44.24256331 16.76658423 -31.12988281 10.16113281 C-30.09734375 9.62552734 -30.09734375 9.62552734 -29.04394531 9.07910156 C-27.08541394 8.07732402 -25.11278506 7.11358275 -23.12988281 6.16113281 C-22.03675781 5.62488281 -20.94363281 5.08863281 -19.81738281 4.53613281 C-15.6941765 2.99866605 -11.72405392 2.2643147 -7.38769531 1.59082031 C-4.4245647 1.02690272 -3.24710529 0.02858026 0 0 Z " fill="#C25216" transform="translate(1307.1298828125,84.8388671875)"/>
<path d="M0 0 C6.53278786 -0.02527002 13.06556321 -0.04283292 19.59838867 -0.05493164 C21.82267732 -0.05997317 24.04696263 -0.06680623 26.27124023 -0.07543945 C29.46078309 -0.08751298 32.65028229 -0.09322996 35.83984375 -0.09765625 C37.34139259 -0.10539818 37.34139259 -0.10539818 38.87327576 -0.11329651 C40.25459435 -0.11340981 40.25459435 -0.11340981 41.66381836 -0.11352539 C42.47878281 -0.115746 43.29374725 -0.11796661 44.13340759 -0.12025452 C46 0 46 0 47 1 C48.57932331 1.18425439 50.16412556 1.32254756 51.75 1.4375 C55.50707894 1.77122334 58.58501698 2.29250849 62 4 C62 4.66 62 5.32 62 6 C64.31 6.33 66.62 6.66 69 7 C69 7.66 69 8.32 69 9 C70.11375 9.144375 71.2275 9.28875 72.375 9.4375 C76 10 76 10 78 11 C78 11.66 78 12.32 78 13 C79.093125 13.2475 80.18625 13.495 81.3125 13.75 C85 15 85 15 86.9375 16.625 C88.4643445 20.03794652 88.5228114 23.35389975 88 27 C87.52771973 28.11918823 87.52771973 28.11918823 87.04589844 29.26098633 C85.93312677 32.17512856 85.42276774 34.83902592 84.96484375 37.921875 C84.79533203 39.02917969 84.62582031 40.13648438 84.45117188 41.27734375 C84.28166016 42.42332031 84.11214844 43.56929687 83.9375 44.75 C83.59609894 47.03700633 83.25124044 49.32350017 82.90234375 51.609375 C82.75273193 52.61967773 82.60312012 53.62998047 82.44897461 54.67089844 C82 57 82 57 81 58 C80.76712992 59.68183948 80.58735834 61.3712416 80.4375 63.0625 C80.35371094 63.98160156 80.26992188 64.90070313 80.18359375 65.84765625 C80.12300781 66.55792969 80.06242188 67.26820313 80 68 C79.34 68 78.68 68 78 68 C78 69.65 78 71.3 78 73 C76.35 73 74.7 73 73 73 C73 72.34 73 71.68 73 71 C71.88625 71.0928125 71.88625 71.0928125 70.75 71.1875 C67.44994921 70.96249654 66.55291407 70.01138684 64 68 C62.00882592 67.30741771 60.0078864 66.64252365 58 66 C57.01 65.484375 56.02 64.96875 55 64.4375 C51.93936408 62.97094529 49.35300125 62.39916682 46 62 C46 61.34 46 60.68 46 60 C44.82630859 60.01740234 44.82630859 60.01740234 43.62890625 60.03515625 C42.11103516 60.04869141 42.11103516 60.04869141 40.5625 60.0625 C39.55316406 60.07410156 38.54382813 60.08570313 37.50390625 60.09765625 C35 60 35 60 34 59 C32.66956375 58.9016279 31.33406656 58.86921408 30 58.8671875 C29.195625 58.86589844 28.39125 58.86460937 27.5625 58.86328125 C26.716875 58.86714844 25.87125 58.87101562 25 58.875 C24.154375 58.87113281 23.30875 58.86726563 22.4375 58.86328125 C21.633125 58.86457031 20.82875 58.86585938 20 58.8671875 C18.88625 58.86887939 18.88625 58.86887939 17.75 58.87060547 C15.97174189 58.81057784 15.97174189 58.81057784 15 60 C12.66702567 60.04092937 10.33294775 60.04241723 8 60 C8 60.66 8 61.32 8 62 C7.01 62 6.02 62 5 62 C5 62.66 5 63.32 5 64 C4.34 64 3.68 64 3 64 C1.81176203 67.56471391 1.73725148 70.2558336 2 74 C3.39957197 76.28484306 3.39957197 76.28484306 5 78 C5 78.66 5 79.32 5 80 C6.31871094 80.42345703 6.31871094 80.42345703 7.6640625 80.85546875 C10.6513769 81.88039043 13.4862435 83.04194377 16.375 84.3125 C23.74668049 87.43200207 31.33886341 89.71527018 39 92 C39 92.66 39 93.32 39 94 C39.90878906 94.11214844 39.90878906 94.11214844 40.8359375 94.2265625 C47.07689252 95.20591237 51.52271395 97.16252444 56.7734375 100.66015625 C58.89656573 101.93775797 60.5808198 102.55261736 63 103 C63 103.66 63 104.32 63 105 C64.65 105.33 66.3 105.66 68 106 C68.33 106.99 68.66 107.98 69 109 C69.99 109 70.98 109 72 109 C72.33 109.66 72.66 110.32 73 111 C73.99 111.33 74.98 111.66 76 112 C78.1875 113.9375 78.1875 113.9375 80 116 C80 116.66 80 117.32 80 118 C80.639375 118.226875 81.27875 118.45375 81.9375 118.6875 C84 120 84 120 84.75 122.625 C84.8325 123.40875 84.915 124.1925 85 125 C85.99 125.33 86.98 125.66 88 126 C92.93414515 132.65036955 95.26163228 141.01594662 96.60546875 149.06640625 C96.81455052 150.99837253 96.81455052 150.99837253 98 152 C98.25569615 156.55654844 98.1852378 161.12463887 98.1875 165.6875 C98.19974609 166.96818359 98.21199219 168.24886719 98.22460938 169.56835938 C98.22654297 170.80779297 98.22847656 172.04722656 98.23046875 173.32421875 C98.23457764 174.45947998 98.23868652 175.59474121 98.24291992 176.7644043 C97.98827904 180.15611851 97.17484764 182.82114668 96 186 C95.42782867 188.45141296 94.88655704 190.91022517 94.375 193.375 C94.11460937 194.62023437 93.85421875 195.86546875 93.5859375 197.1484375 C93.39257812 198.08945312 93.19921875 199.03046875 93 200 C92.34 200 91.68 200 91 200 C91.0825 200.845625 91.165 201.69125 91.25 202.5625 C90.92462977 207.03634062 89.40067871 209.24893952 87 213 C86.34 213 85.68 213 85 213 C84.8453125 214.1446875 84.8453125 214.1446875 84.6875 215.3125 C83.93772808 218.24342658 83.16526733 219.01517162 81 221 C80.67 221.99 80.34 222.98 80 224 C79.34 224 78.68 224 78 224 C78 224.66 78 225.32 78 226 C77.34 226 76.68 226 76 226 C76 226.66 76 227.32 76 228 C74.28975524 229.60861731 72.50561171 231.13938343 70.6875 232.625 C69.70136719 233.44226563 68.71523438 234.25953125 67.69921875 235.1015625 C65 237 65 237 62 237 C62 237.66 62 238.32 62 239 C57.2825583 242.32995885 52.77137126 244 47 244 C47 244.66 47 245.32 47 246 C45.92878906 246.20496094 44.85757813 246.40992188 43.75390625 246.62109375 C42.35673149 246.89302709 40.95959819 247.16517352 39.5625 247.4375 C38.50192383 247.63956055 38.50192383 247.63956055 37.41992188 247.84570312 C33.91570736 248.28406898 33.91570736 248.28406898 31 250 C29.5932478 250.09804851 28.18164864 250.12798186 26.77148438 250.12939453 C25.42503845 250.13412277 25.42503845 250.13412277 24.0513916 250.13894653 C23.07536987 250.1369223 22.09934814 250.13489807 21.09375 250.1328125 C19.6011969 250.13424759 19.6011969 250.13424759 18.07849121 250.13571167 C15.97013282 250.1363936 13.86177235 250.13453844 11.75341797 250.13037109 C8.51394973 250.12502303 5.27462015 250.13031567 2.03515625 250.13671875 C-0.00781281 250.13605797 -2.05078178 250.13477681 -4.09375 250.1328125 C-5.06977173 250.13483673 -6.04579346 250.13686096 -7.0513916 250.13894653 C-7.94902222 250.13579437 -8.84665283 250.13264221 -9.77148438 250.12939453 C-10.9627594 250.12820114 -10.9627594 250.12820114 -12.17810059 250.12698364 C-14 250 -14 250 -15 249 C-17.32868255 248.67327158 -19.66340383 248.3892579 -22 248.125 C-28.00934899 247.37867649 -33.35864735 246.16620567 -39 244 C-40.16015625 243.60425781 -41.3203125 243.20851563 -42.515625 242.80078125 C-53.01827625 239.20524247 -53.01827625 239.20524247 -57 236 C-59.14733927 235.29485154 -59.14733927 235.29485154 -61 235 C-61 234.34 -61 233.68 -61 233 C-61.99 233 -62.98 233 -64 233 C-65.52634923 229.94730154 -64.83794444 227.24154311 -64.5625 223.875 C-64.46066406 222.59367188 -64.35882813 221.31234375 -64.25390625 219.9921875 C-64.12822266 218.51105469 -64.12822266 218.51105469 -64 217 C-63.34 217 -62.68 217 -62 217 C-62.01160156 216.21753906 -62.02320313 215.43507813 -62.03515625 214.62890625 C-62.04417969 213.61699219 -62.05320312 212.60507812 -62.0625 211.5625 C-62.07410156 210.55316406 -62.08570313 209.54382813 -62.09765625 208.50390625 C-62 206 -62 206 -61 205 C-60.71756753 203.67508119 -60.48697793 202.33897497 -60.28125 201 C-60.15363281 200.195625 -60.02601563 199.39125 -59.89453125 198.5625 C-59.76433594 197.716875 -59.63414062 196.87125 -59.5 196 C-59.24330542 194.33275601 -58.98307543 192.66605122 -58.71875 191 C-58.60466797 190.2575 -58.49058594 189.515 -58.37304688 188.75 C-58 187 -58 187 -57 186 C-56.62911039 184.19481074 -56.30258696 182.38038572 -56 180.5625 C-55.10763209 175.21526419 -55.10763209 175.21526419 -54 173 C-47.75577479 173.64043335 -42.54243818 176.22878091 -37 179 C-37 179.66 -37 180.32 -37 181 C-35.9275 181.144375 -34.855 181.28875 -33.75 181.4375 C-31.08337051 181.83749442 -28.58600271 182.27591924 -26 183 C-26 183.66 -26 184.32 -26 185 C-22.37 185.33 -18.74 185.66 -15 186 C-15 186.66 -15 187.32 -15 188 C-2.79 188 9.42 188 22 188 C22 187.34 22 186.68 22 186 C22.94875 185.54625 23.8975 185.0925 24.875 184.625 C28.00313679 183.19761746 28.00313679 183.19761746 30 181 C30.53727554 178.93755653 30.53727554 178.93755653 30.75 176.625 C30.84796875 175.85414063 30.9459375 175.08328125 31.046875 174.2890625 C30.99220606 171.61939589 30.49484071 170.20343403 29 168 C28.01 167.67 27.02 167.34 26 167 C26 166.34 26 165.68 26 165 C23.69 164.34 21.38 163.68 19 163 C19 162.34 19 161.68 19 161 C17.4221875 160.7834375 17.4221875 160.7834375 15.8125 160.5625 C12.84539451 160.12473034 9.93205634 159.62195134 7 159 C7 158.34 7 157.68 7 157 C6.31035156 156.89042969 5.62070312 156.78085938 4.91015625 156.66796875 C-1.29405716 155.62116731 -7.09957328 154.18534323 -13 152 C-13 151.34 -13 150.68 -13 150 C-13.9075 149.95875 -14.815 149.9175 -15.75 149.875 C-24.416573 148.58719598 -32.14306995 143.09892775 -39.25 138.25 C-39.82314941 137.86134766 -40.39629883 137.47269531 -40.98681641 137.07226562 C-42.36486188 136.10310937 -43.6885939 135.05758556 -45 134 C-45 133.34 -45 132.68 -45 132 C-45.66 132 -46.32 132 -47 132 C-47 131.34 -47 130.68 -47 130 C-47.61875 129.773125 -48.2375 129.54625 -48.875 129.3125 C-51.61410209 127.62070165 -52.05024472 126.00755839 -53 123 C-53.66 123 -54.32 123 -55 123 C-56.23671496 120.80030936 -57.46572872 118.59691825 -58.68359375 116.38671875 C-59.73515613 114.48017687 -60.80246023 112.58232026 -61.875 110.6875 C-63 108 -63 108 -62.6875 105.625 C-62.460625 105.08875 -62.23375 104.5525 -62 104 C-62.66 104 -63.32 104 -64 104 C-65.05353277 99.68655836 -65.16115442 95.48113733 -65.16796875 91.06640625 C-65.17129715 90.31084946 -65.17462555 89.55529266 -65.17805481 88.77684021 C-65.18310083 87.1841594 -65.18546386 85.59146809 -65.18530273 83.9987793 C-65.18748974 81.57387756 -65.20567122 79.14943079 -65.22460938 76.72460938 C-65.22754376 75.17187654 -65.22952826 73.61914157 -65.23046875 72.06640625 C-65.23765427 71.34747696 -65.24483978 70.62854767 -65.25224304 69.88783264 C-65.23261701 65.52368952 -64.51908465 62.07319044 -63 58 C-62.87625 56.89269531 -62.7525 55.78539062 -62.625 54.64453125 C-61.85163754 50.1348614 -60.12653612 46.6989204 -58 42.6875 C-57.63132812 41.97271484 -57.26265625 41.25792969 -56.8828125 40.52148438 C-55.93002285 38.67675842 -54.96580568 36.83794487 -54 35 C-53.67 34.34 -53.34 33.68 -53 33 C-52.34 33 -51.68 33 -51 33 C-50.89429688 32.41734375 -50.78859375 31.8346875 -50.6796875 31.234375 C-48.21257795 23.12410684 -38.79954032 17.23984604 -32 13 C-31.34 13 -30.68 13 -30 13 C-30 12.34 -30 11.68 -30 11 C-27.09399739 9.74335022 -25.20395416 9 -22 9 C-22 8.34 -22 7.68 -22 7 C-18.535 6.505 -18.535 6.505 -15 6 C-15 5.34 -15 4.68 -15 4 C-10.13948404 1.40772482 -5.34728867 1.81310447 0 2 C0 1.34 0 0.68 0 0 Z " fill="#000000" transform="translate(400,85)"/>
<path d="M0 0 C7.24486551 -0.02526739 14.48971974 -0.0428318 21.73461914 -0.05493164 C24.20142033 -0.05997356 26.66821852 -0.06680691 29.13500977 -0.07543945 C32.67204529 -0.08751125 36.20904145 -0.09322956 39.74609375 -0.09765625 C40.85649521 -0.10281754 41.96689667 -0.10797882 43.11094666 -0.11329651 C44.64242088 -0.11340981 44.64242088 -0.11340981 46.20483398 -0.11352539 C47.10862289 -0.115746 48.0124118 -0.11796661 48.94358826 -0.12025452 C51 0 51 0 52 1 C54.22145633 1.28387779 56.44317648 1.44765173 58.67578125 1.62109375 C61.12054437 2.01965177 62.85466592 2.78741987 65 4 C65 4.66 65 5.32 65 6 C66.98 6.33 68.96 6.66 71 7 C71 7.66 71 8.32 71 9 C73.31 9.66 75.62 10.32 78 11 C78 11.66 78 12.32 78 13 C79.98 13.495 79.98 13.495 82 14 C82.0543251 17.02107902 82.09382927 20.04116528 82.125 23.0625 C82.14175781 23.91005859 82.15851563 24.75761719 82.17578125 25.63085938 C82.18222656 26.46552734 82.18867187 27.30019531 82.1953125 28.16015625 C82.20578613 28.91949463 82.21625977 29.67883301 82.22705078 30.46118164 C81.92955206 33.78772917 80.91705522 36.79030673 80 40 C79.58959995 42.64095972 79.22819163 45.25002759 78.9296875 47.90234375 C78.80075607 48.98619102 78.80075607 48.98619102 78.66921997 50.0919342 C78.39908849 52.37319379 78.13691343 54.65528384 77.875 56.9375 C77.69193403 58.49550481 77.5083452 60.05344828 77.32421875 61.61132812 C76.87676852 65.40687016 76.43644559 69.20317747 76 73 C75.34 73 74.68 73 74 73 C74 73.66 74 74.32 74 75 C69.25 74.125 69.25 74.125 67 73 C67 72.34 67 71.68 67 71 C65.35 71 63.7 71 62 71 C62 70.34 62 69.68 62 69 C58.40288072 68.27005441 54.79939671 67.59025242 51.1875 66.9375 C49.72376953 66.67259766 49.72376953 66.67259766 48.23046875 66.40234375 C47.49441406 66.26957031 46.75835938 66.13679688 46 66 C46 65.34 46 64.68 46 64 C39.4 64 32.8 64 26 64 C26 64.66 26 65.32 26 66 C22.78548731 67.60725635 19.56387464 67.05748185 16 67 C16 67.66 16 68.32 16 69 C15.44570313 69.18175781 14.89140625 69.36351562 14.3203125 69.55078125 C13.59585938 69.80214844 12.87140625 70.05351562 12.125 70.3125 C11.40570312 70.55613281 10.68640625 70.79976563 9.9453125 71.05078125 C7.66005095 71.96335547 7.66005095 71.96335547 6 75 C5.01 75 4.02 75 3 75 C2.72800781 75.598125 2.45601562 76.19625 2.17578125 76.8125 C1.027321 78.94917024 -0.12102722 80.28621227 -1.8125 82 C-5.94508155 86.6402697 -7.86333876 92.24235977 -10 98 C-10.66 98 -11.32 98 -12 98 C-11.98839844 98.63808594 -11.97679687 99.27617187 -11.96484375 99.93359375 C-11.95582031 100.75988281 -11.94679688 101.58617187 -11.9375 102.4375 C-11.92589844 103.26121094 -11.91429687 104.08492188 -11.90234375 104.93359375 C-12 107 -12 107 -13 108 C-13.96126848 114.74251435 -14.18286849 121.38381606 -14.1875 128.1875 C-14.19974609 129.14591797 -14.21199219 130.10433594 -14.22460938 131.09179688 C-14.23516361 136.18245851 -13.88763414 140.2037934 -12 145 C-11.9175 146.19625 -11.835 147.3925 -11.75 148.625 C-10.79193723 157.38202989 -5.28455173 165.99790003 1 172 C2.32491874 173.0111222 3.65434813 174.01663902 5 175 C5 175.66 5 176.32 5 177 C5.639375 177.0825 6.27875 177.165 6.9375 177.25 C10.3841849 178.0940861 13.33112665 179.43833874 16.5234375 180.96484375 C22.70362543 183.54804533 28.32082104 184.38790728 34.9375 184.375 C35.76217773 184.37411377 36.58685547 184.37322754 37.43652344 184.37231445 C46.91438268 184.19312652 56.02850948 182.26308977 64.7109375 178.37890625 C68.39886957 176.83277796 71.03938792 176.68315103 75 177 C77.02795339 179.02795339 76.78253422 182.89508045 77.15625 185.68359375 C77.2634436 186.45429703 77.37063721 187.22500031 77.4810791 188.01905823 C77.82470404 190.49134083 78.16289002 192.96432117 78.5 195.4375 C78.83733796 197.90707296 79.17592406 200.3764364 79.5189209 202.8452301 C79.73266755 204.38393892 79.94312632 205.92310865 80.15002441 207.4627533 C80.64844304 211.35238497 80.64844304 211.35238497 82 215 C82.08372659 216.52148326 82.10730027 218.04655778 82.09765625 219.5703125 C82.09443359 220.46621094 82.09121094 221.36210937 82.08789062 222.28515625 C82.07951172 223.22230469 82.07113281 224.15945313 82.0625 225.125 C82.05798828 226.06988281 82.05347656 227.01476562 82.04882812 227.98828125 C82.03702357 230.32558387 82.02055759 232.66276061 82 235 C79.65269212 236.32621385 77.29835742 237.63580199 74.9375 238.9375 C74.28072266 239.31068359 73.62394531 239.68386719 72.94726562 240.06835938 C68.55922537 242.46773114 64.99126862 243.59109243 60 244 C60 244.66 60 245.32 60 246 C58.39318359 246.30744141 58.39318359 246.30744141 56.75390625 246.62109375 C55.35673149 246.89302709 53.95959819 247.16517352 52.5625 247.4375 C51.85544922 247.57220703 51.14839844 247.70691406 50.41992188 247.84570312 C46.91570736 248.28406898 46.91570736 248.28406898 44 250 C40.90918535 250.1011692 37.84117445 250.13968558 34.75 250.1328125 C33.82155273 250.13376923 32.89310547 250.13472595 31.93652344 250.13571167 C29.96940035 250.13639355 28.00227504 250.13453872 26.03515625 250.13037109 C23.01296974 250.12502295 19.99093185 250.13031582 16.96875 250.13671875 C15.06249967 250.13605797 13.15624943 250.13477681 11.25 250.1328125 C9.88439941 250.13584885 9.88439941 250.13584885 8.49121094 250.13894653 C2.11494969 250.11494969 2.11494969 250.11494969 1 249 C-1.68544346 248.43725235 -4.36253387 247.91938977 -7.0625 247.4375 C-7.82111328 247.29892578 -8.57972656 247.16035156 -9.36132812 247.01757812 C-11.24024975 246.67488173 -13.12004701 246.3369927 -15 246 C-15 245.34 -15 244.68 -15 244 C-16.155 243.9175 -17.31 243.835 -18.5 243.75 C-23.22127498 243.18513317 -26.9106739 241.33831147 -31 239 C-31 238.34 -31 237.68 -31 237 C-31.598125 236.855625 -32.19625 236.71125 -32.8125 236.5625 C-34.56150404 236.1127561 -36.28677023 235.57107659 -38 235 C-38 234.34 -38 233.68 -38 233 C-38.7734375 232.6596875 -38.7734375 232.6596875 -39.5625 232.3125 C-42.89547005 230.51782382 -46.14703671 228.50034985 -49 226 C-49 225.34 -49 224.68 -49 224 C-49.66 224 -50.32 224 -51 224 C-51 223.34 -51 222.68 -51 222 C-52.32 221.34 -53.64 220.68 -55 220 C-55 219.34 -55 218.68 -55 218 C-55.66 218 -56.32 218 -57 218 C-57 217.34 -57 216.68 -57 216 C-57.99 215.67 -58.98 215.34 -60 215 C-62 212 -62 212 -62 209 C-63.32 208.34 -64.64 207.68 -66 207 C-66 206.34 -66 205.68 -66 205 C-66.66 205 -67.32 205 -68 205 C-68 203.68 -68 202.36 -68 201 C-68.66 201 -69.32 201 -70 201 C-72.03435531 197.27034861 -73 195.33094958 -73 191 C-73.66 191 -74.32 191 -75 191 C-79.59225513 181.77448747 -79.59225513 181.77448747 -79 176 C-79.66 176 -80.32 176 -81 176 C-81 173.36 -81 170.72 -81 168 C-81.99 167.67 -82.98 167.34 -84 167 C-84.06058594 166.36191406 -84.12117187 165.72382813 -84.18359375 165.06640625 C-84.26738281 164.24011719 -84.35117187 163.41382813 -84.4375 162.5625 C-84.51871094 161.73878906 -84.59992187 160.91507813 -84.68359375 160.06640625 C-84.78930815 158.01337975 -84.78930815 158.01337975 -86 157 C-89.50315927 137.56593703 -87.72025758 117.51639784 -86 98 C-85.34 98 -84.68 98 -84 98 C-84.02320313 97.37351562 -84.04640625 96.74703125 -84.0703125 96.1015625 C-84.09738281 94.87566406 -84.09738281 94.87566406 -84.125 93.625 C-84.15980469 92.40683594 -84.15980469 92.40683594 -84.1953125 91.1640625 C-84 89 -84 89 -82 87 C-81.54188325 85.02764667 -81.54188325 85.02764667 -81.375 82.875 C-81.189375 80.956875 -81.189375 80.956875 -81 79 C-80.34 79 -79.68 79 -79 79 C-79 76.69 -79 74.38 -79 72 C-78.34 72 -77.68 72 -77 72 C-76.34 69.03 -75.68 66.06 -75 63 C-74.34 63 -73.68 63 -73 63 C-72.87625 62.2575 -72.7525 61.515 -72.625 60.75 C-72.04513299 58.19858515 -71.26291261 56.2732427 -70 54 C-69.34 54 -68.68 54 -68 54 C-67.90460937 53.4534375 -67.80921875 52.906875 -67.7109375 52.34375 C-66.80513405 49.35758479 -65.32633603 47.11302243 -63.625 44.5 C-63.01914062 43.5615625 -62.41328125 42.623125 -61.7890625 41.65625 C-58.51202079 36.79077323 -58.51202079 36.79077323 -57 35 C-56.34 35 -55.68 35 -55 35 C-54.34 33.68 -53.68 32.36 -53 31 C-52.34 31 -51.68 31 -51 31 C-50.731875 30.360625 -50.46375 29.72125 -50.1875 29.0625 C-49 27 -49 27 -46 26 C-46 25.34 -46 24.68 -46 24 C-45.34 24 -44.68 24 -44 24 C-44 23.34 -44 22.68 -44 22 C-42.35 21.34 -40.7 20.68 -39 20 C-39 19.34 -39 18.68 -39 18 C-36.96310519 16.54166682 -34.95211133 15.22772949 -32.8125 13.9375 C-32.23435547 13.57333984 -31.65621094 13.20917969 -31.06054688 12.83398438 C-27.73624323 10.80183943 -24.87867557 9.4747908 -21 9 C-21 8.34 -21 7.68 -21 7 C-19.27255984 6.34956281 -17.5429631 5.70485156 -15.8125 5.0625 C-14.84957031 4.70285156 -13.88664063 4.34320313 -12.89453125 3.97265625 C-8.50816072 2.49869368 -4.62241321 1.86793105 0 2 C0 1.34 0 0.68 0 0 Z " fill="#000000" transform="translate(952,85)"/>
<path d="M0 0 C0.66 0.66 1.32 1.32 2 2 C1.9765625 4.3828125 1.9765625 4.3828125 1.625 7.125 C1.51414062 8.03507813 1.40328125 8.94515625 1.2890625 9.8828125 C1.19367188 10.58148438 1.09828125 11.28015625 1 12 C0.67 12 0.34 12 0 12 C0 8.04 0 4.08 0 0 Z " fill="#020200" transform="translate(1193,198)"/>
</svg>
